<?xml version="1.0" encoding="UTF-8" standalone="no"?>
<svg
   xmlns:dc="http://purl.org/dc/elements/1.1/"
   xmlns:cc="http://creativecommons.org/ns#"
   xmlns:rdf="http://www.w3.org/1999/02/22-rdf-syntax-ns#"
   xmlns:svg="http://www.w3.org/2000/svg"
   xmlns="http://www.w3.org/2000/svg"
   width="200"
   height="200"
   viewBox="0 0 200 200"
   version="1.1"
   id="svg8">
  <defs
     id="defs2" />
  <metadata
     id="metadata5">
    <rdf:RDF>
      <cc:Work
         rdf:about="">
        <dc:format>image/svg+xml</dc:format>
        <dc:type
           rdf:resource="http://purl.org/dc/dcmitype/StillImage" />
        <dc:title></dc:title>
      </cc:Work>
    </rdf:RDF>
  </metadata>
  <g
     id="layer1"
     transform="translate(-4.2761458,-33.189686)">
    <path
       id="path911"
       transform="scale(0.26458333)"
       style="fill:#000000;stroke:#000000;stroke-width:0.99999994px;stroke-linecap:butt;stroke-linejoin:miter;stroke-opacity:1"
       d="m 194.23438,329.18359 c -2.56554,-0.0313 -5.12852,0.0172 -7.6875,0.16602 -13.20939,0.76818 -26.32702,3.44482 -39.07813,6.97851 -13.43254,3.72254 -26.70097,8.47229 -39.07617,14.88672 -8.629544,4.47295 -16.68826,10.10429 -24.191408,16.28321 -10.157072,8.36445 -19.689944,17.6395 -27.91211,27.91211 -6.881888,8.59808 -12.301314,18.30058 -17.677734,27.91211 -4.130428,7.38406 -8.119162,14.90103 -11.164062,22.79492 -3.020252,7.82997 -5.447854,15.93795 -6.978516,24.18945 -1.646476,8.87584 -0.930566,13.95677 -0.930566,13.95677 l 31.169726,29.30677 35.353712,-26.51647 c -0.271546,-9.6835 0.220615,-6.15104 2.791894,-14.4209 1.710228,-5.43923 3.892924,-10.75263 6.513672,-15.8164 2.531009,-4.89037 5.699422,-9.43245 8.837892,-13.95703 3.65903,-5.27505 7.08038,-10.82301 11.63086,-15.35157 5.49568,-5.4692 12.02799,-9.85315 18.60742,-13.95508 7.5328,-4.69629 15.32977,-9.21041 23.72461,-12.0957 8.51313,-2.92596 17.54091,-4.44337 26.51758,-5.11719 13.42934,-0.61655 4.19277,-2.04362 17.21116,0.9295 l -18.83574,-42.19548 36.51452,-21.5357 c -15.95502,-4.55965 -10.1393,-4.1147 -25.34111,-4.35457 z m 397.97265,0.95899 c -2.48451,-0.0255 -4.9685,0.015 -7.44922,0.13867 -9.54962,0.47618 -19.03029,2.17195 -28.37695,4.1875 -12.80853,3.15861 -6.75576,1.52868 -19.53753,6.04649 l 47.91529,17.2122 -12.09517,40.93803 c 11.8822,-3.37336 10.65017,-3.19716 22.08655,-2.97406 7.26062,0.15987 14.52391,1.07222 21.64258,2.50976 8.70652,1.7582 17.59035,3.57494 25.58594,7.44336 7.70774,3.72915 14.32414,9.44134 20.93359,14.88477 6.60404,5.43896 13.20586,11.04466 18.60937,17.67773 4.26679,5.23771 7.60674,11.20662 10.69922,17.21289 8.10677,14.28249 8.48502,14.1925 11.16407,30.70322 l 31.63333,32.5655 33.9597,-32.1003 c -0.37506,-15.42851 -1.96573,-20.0582 -6.04616,-33.49459 -2.38961,-7.79131 -5.18326,-15.51177 -8.83984,-22.79492 -3.53269,-7.03635 -8.22932,-13.42889 -12.56055,-20.00391 -4.35386,-6.60933 -8.4228,-13.45759 -13.49023,-19.53711 -4.77396,-5.72742 -10.2232,-10.88783 -15.81641,-15.81836 -7.21296,-6.35841 -14.65658,-12.55681 -22.79492,-17.67773 -7.04342,-4.43196 -14.73308,-7.76736 -22.33008,-11.16406 -8.07027,-3.60831 -16.13916,-7.40136 -24.65625,-9.76954 -9.08761,-2.5268 -18.53268,-3.65443 -27.91211,-4.65234 -7.40959,-0.78833 -14.87068,-1.45662 -22.32422,-1.5332 z m -319.13326,18.28164 -35.58588,19.67382 11.85931,41.2681 c 11.35171,6.67029 11.88579,10.21507 20.936,18.60652 33.66825,31.09969 81.87455,80.01445 81.87455,80.01445 l 0.46591,-46.51898 46.98494,3.7209 c 0,0 -38.80832,-40.43108 -64.19844,-65.59333 -22.86581,-26.69027 -32.85745,-34.28096 -62.33639,-51.17148 z m 220.04069,15.8166 c -12.68684,10.29728 -12.67731,10.62335 -22.3293,19.53848 -6.21563,5.72349 -12.53507,11.33962 -18.60938,17.21289 -14.89852,14.40544 -34.88968,33.95892 -34.88968,33.95892 l 45.58913,44.65907 c 0,0 24.08319,-19.96793 39.54274,-36.28596 4.60566,-4.86142 8.61158,-10.29737 13.49023,-14.88477 7.84995,-6.48929 6.94522,-6.41571 16.28314,-13.02731 l 4.6516,-42.79687 z m -102.80987,133.51315 -0.92988,48.37978 c 0,0 43.50102,42.72131 69.31474,69.31547 4.27949,4.40886 8.22339,9.14006 12.56055,13.49219 4.80129,4.81787 9.58332,9.69615 14.88672,13.95507 5.56698,4.47058 11.52413,8.47492 17.67773,12.09571 15.98006,9.50762 13.59776,8.43324 31.63324,13.95592 L 520.0958,624.28779 551.72894,606.6113 c -15.13254,-7.79822 -12.76568,-6.13255 -24.18988,-14.88669 -5.30736,-4.08382 -10.04261,-8.86636 -14.88672,-13.49023 C 482.4329,549.38895 433.1025,500.5457 433.1025,500.5457 Z m 379.14001,33.9601 -40.93861,30.70237 -27.44688,-29.30697 c -1.93632,15.65501 -4.81272,16.93641 -12.09427,29.30655 -3.44995,5.78135 -7.93795,10.92364 -12.56054,15.81836 -5.2786,5.58935 -10.99875,10.82508 -17.21289,15.35156 -6.68546,4.86981 -13.86946,9.14071 -21.40039,12.56054 -15.01219,7.24142 -15.40288,6.77706 -31.16736,7.90785 l -44.66051,25.58489 17.67898,39.54313 c 13.99161,2.69663 17.2625,2.32497 30.23678,0.93093 8.28722,-0.90247 16.54719,-2.25465 24.65625,-4.1875 8.68354,-2.06978 17.25536,-4.7004 25.58593,-7.9082 6.86264,-2.64257 13.5919,-5.70393 20.00391,-9.30469 5.84995,-3.28513 11.28043,-7.27576 16.74805,-11.16406 5.23181,-3.72061 10.5386,-7.38229 15.35156,-11.63086 6.49459,-5.73302 12.65531,-11.9039 18.14258,-18.60742 4.87661,-5.95752 8.87214,-12.59165 13.02539,-19.07422 3.41442,-5.32936 7.00182,-10.58913 9.76953,-16.28125 3.99205,-8.21012 7.18362,-16.83059 9.76953,-25.58594 3.76937,-14.26255 4.62069,-9.83466 6.51296,-24.65507 z M 86.061622,530.31739 54.428646,565.20765 19.538184,537.29486 c 2.545669,14.01293 3.654275,11.99606 7.444238,24.19147 2.011196,6.37058 4.646457,12.5406 7.443359,18.60742 2.93299,6.362 5.942878,12.74003 9.767578,18.60937 4.217707,6.47248 9.436168,12.24134 14.421875,18.14258 5.244163,6.20716 10.385186,12.553 16.283204,18.14258 5.92374,5.61396 12.349793,10.72387 19.072265,15.35156 7.097867,4.8861 14.523187,9.37762 22.330077,13.02539 9.11008,4.25666 18.72761,7.4054 28.37695,10.23438 8.69963,2.55054 17.53211,4.83019 26.51563,6.04883 10.15203,1.37714 20.47987,2.03111 30.70508,1.39453 19.03284,-1.88656 18.1789,-1.79513 36.2847,-7.44245 L 254.3718,627.7051 203.29307,612.65856 c -15.11304,3.5724 -18.71938,3.32616 -32.56455,-3.6e-4 -8.81662,-2.15043 -17.38005,-5.42908 -25.58594,-9.30468 -7.16609,-3.38453 -14.29242,-7.1278 -20.46875,-12.09375 -7.26806,-5.84376 -13.4398,-13.03578 -19.07227,-20.46875 -5.0434,-6.6556 -9.569622,-13.79927 -13.027341,-21.4004 -4.793372,-11.20787 -5.372128,-6.97017 -6.512597,-19.07323 z m 238.184758,-1.86065 c 0,0 -29.05767,30.80762 -49.31279,50.24248 -10.74758,11.60039 -10.88544,13.28051 -25.11995,20.9332 l 38.61166,10.23561 -6.97849,47.91478 c 12.84911,-5.50721 13.2159,-8.42565 22.79538,-16.74765 26.87169,-23.40817 64.19772,-68.38366 64.19772,-68.38366 z" />
  </g>
</svg>
