<?xml version="1.0" encoding="UTF-8" standalone="no"?>
<svg
   xmlns:dc="http://purl.org/dc/elements/1.1/"
   xmlns:cc="http://creativecommons.org/ns#"
   xmlns:rdf="http://www.w3.org/1999/02/22-rdf-syntax-ns#"
   xmlns:svg="http://www.w3.org/2000/svg"
   xmlns="http://www.w3.org/2000/svg"
   id="svg14"
   version="1.1"
   viewBox="0 0 59.999999 60"
   height="60mm"
   width="60mm">
  <defs
     id="defs8" />
  <metadata
     id="metadata11">
    <rdf:RDF>
      <cc:Work
         rdf:about="">
        <dc:format>image/svg+xml</dc:format>
        <dc:type
           rdf:resource="http://purl.org/dc/dcmitype/StillImage" />
        <dc:title></dc:title>
      </cc:Work>
    </rdf:RDF>
  </metadata>
  <g
     transform="translate(-57.551395,-103.28184)"
     id="layer1">
    <path
       d="m 70.463975,116.93773 c -0.926806,0.0147 -1.871461,0.14963 -2.740401,0.47232 -0.774784,0.28773 -1.47453,0.76726 -2.125968,1.27589 -0.561769,0.43861 -1.099811,0.93065 -1.512053,1.51205 -0.525581,0.74125 -0.888227,1.59641 -1.180806,2.4567 -0.196916,0.57901 -0.314936,1.18695 -0.378271,1.79524 -0.07503,0.72056 0.04191,1.45027 0,2.17351 -0.03944,0.68062 -0.10732,1.36192 -0.236162,2.0314 -0.148008,0.76908 -0.368491,1.52434 -0.613916,2.26808 -0.243784,0.73875 -0.527188,1.46546 -0.850594,2.17299 -0.281146,0.61508 -0.666791,1.17942 -0.945162,1.79576 -0.291356,0.64508 -0.591979,1.29581 -0.756026,1.98437 -0.176144,0.73935 -0.22044,1.50768 -0.236161,2.26756 -0.01566,0.75727 0.0016,1.52382 0.14211,2.26808 0.171961,0.91028 0.489389,1.79256 0.850077,2.64584 0.32643,0.77225 0.697768,1.53562 1.181323,2.22053 0.430766,0.61014 0.978203,1.13132 1.512053,1.65365 0.478658,0.46832 1.511535,1.32291 1.511535,1.32291 l 12.662277,0.0946 c 0,0 1.33316,-1.02471 1.937349,-1.60662 0.578406,-0.55707 1.143527,-1.13881 1.606103,-1.79524 0.474954,-0.674 0.873293,-1.40868 1.181324,-2.17351 0.31116,-0.77261 0.538096,-1.58594 0.661458,-2.40967 0.158681,-1.05958 0.19375,-2.14593 0.09457,-3.21272 -0.08207,-0.88277 -0.263181,-1.76537 -0.56689,-2.59829 -0.231675,-0.63537 -0.642233,-1.19059 -0.945163,-1.79524 -0.328165,-0.65502 -0.662734,-1.30817 -0.944645,-1.98438 -0.322045,-0.77248 -0.660321,-1.54764 -0.850594,-2.36264 -0.158554,-0.67915 -0.185856,-1.38335 -0.236161,-2.07895 -0.07274,-1.0058 0.03914,-2.02406 -0.09457,-3.02359 -0.09876,-0.73831 -0.267889,-1.47253 -0.519865,-2.17351 -0.290682,-0.80864 -0.619132,-1.62697 -1.133781,-2.3151 -0.460645,-0.61592 -1.051603,-1.14645 -1.700671,-1.55908 -0.733039,-0.46601 -1.571332,-0.76481 -2.409672,-0.99219 -0.767403,-0.20814 -1.567616,-0.3433 -2.362647,-0.33072 z m 0.142111,3.11815 c 0,0 0.06187,0.74163 0.188619,1.08676 0.214159,0.58315 0.538391,1.13708 0.945162,1.60662 0.396179,0.45731 0.899967,0.8203 1.417484,1.13378 0.367919,0.22286 0.769186,0.39497 1.180806,0.51986 0.520317,0.15787 1.606621,0.28319 1.606621,0.28319 0,0 0.04194,1.18084 -0.09457,1.74821 -0.108852,0.45242 -0.322884,0.87967 -0.56689,1.27589 -0.352119,0.57178 -0.760124,1.12908 -1.275892,1.55908 -0.525184,0.43786 -1.141771,0.7909 -1.795239,0.99219 -0.297265,0.0915 -0.60584,0.14406 -0.917773,0.17363 a 8.4572172,8.4099693 0 0 1 7.81606,8.37779 8.4572172,8.4099693 0 0 1 -8.457365,8.41033 8.4572172,8.4099693 0 0 1 -8.457365,-8.41033 8.4572172,8.4099693 0 0 1 7.797974,-8.38141 c -0.546891,-0.0518 -1.088091,-0.18494 -1.608687,-0.35915 -0.52782,-0.17662 -1.076024,-0.3619 -1.511536,-0.70848 -0.579316,-0.46102 -1.004479,-1.10463 -1.370459,-1.74821 -0.258789,-0.4551 -0.448217,-0.95462 -0.56689,-1.46451 -0.121854,-0.52355 -0.141594,-1.60662 -0.141594,-1.60662 0,0 1.299145,-0.0697 1.936833,-0.18914 0.401883,-0.0753 0.818722,-0.1418 1.181323,-0.33073 0.506092,-0.2637 0.941689,-0.66211 1.322917,-1.08675 0.364757,-0.40631 0.664336,-0.87628 0.897619,-1.36995 0.225587,-0.47739 0.47284,-1.51205 0.47284,-1.51205 z m 23.731368,6.92206 c -0.131037,0.003 -0.262093,0.0113 -0.391708,0.0233 -0.517273,0.0478 -1.024326,0.19804 -1.511535,0.37827 -0.726628,0.2688 -1.482548,0.5447 -2.078942,1.03922 -0.38068,0.31566 -0.644626,0.75641 -0.89762,1.18132 -0.274058,0.46029 -0.535644,0.9438 -0.661459,1.46451 -0.14814,0.6131 -0.08808,1.2591 -0.09457,1.88981 -0.0055,0.53567 0.119711,1.07588 0.04702,1.60662 -0.100708,0.73534 -0.38913,1.43552 -0.661458,2.12597 -0.186084,0.47178 -0.448831,0.91003 -0.661458,1.37046 -0.245375,0.53133 -0.480201,1.06719 -0.708483,1.6061 -0.212175,0.50088 -0.51013,0.97818 -0.614434,1.51205 -0.114755,0.58736 0,1.19678 0,1.79524 0,0.40947 -0.0875,0.82833 0,1.22835 0.13703,0.62646 0.518639,1.17345 0.803053,1.74821 0.2531,0.51148 0.464203,1.05326 0.803568,1.51206 0.357614,0.48346 0.828808,0.87262 1.275374,1.27537 0.241102,0.21745 0.756026,0.61443 0.756026,0.61443 l 8.551934,-0.047 c 0,0 1.002604,-0.55746 1.417484,-0.94516 0.377444,-0.35272 0.670374,-0.79057 0.944644,-1.22835 0.31784,-0.50733 0.59534,-1.04514 0.80305,-1.60662 0.24782,-0.66992 0.40612,-1.37378 0.51986,-2.07895 0.1006,-0.62367 0.20344,-1.2611 0.1416,-1.8898 -0.0576,-0.5856 -0.27123,-1.14768 -0.47233,-1.70067 -0.19511,-0.53652 -0.46266,-1.04382 -0.70848,-1.55908 -0.24261,-0.50855 -0.56903,-0.98053 -0.75603,-1.51206 -0.197852,-0.56239 -0.246215,-1.16684 -0.378263,-1.74821 -0.0753,-0.33153 -0.201488,-0.65399 -0.236162,-0.99219 -0.05464,-0.5329 0.0263,-1.07083 0.04754,-1.6061 0.01252,-0.31513 0.09892,-0.63408 0.04703,-0.94516 -0.08372,-0.50193 -0.315132,-0.97526 -0.566891,-1.41749 -0.422336,-0.74185 -0.893051,-1.49743 -1.559079,-2.0314 -0.582721,-0.46718 -1.307883,-0.76186 -2.031915,-0.94516 -0.378563,-0.0958 -0.774248,-0.12794 -1.167371,-0.11782 z m -0.202573,2.43293 c 0,0 0.267938,0.97683 0.566891,1.37045 0.278199,0.3663 0.707708,0.58952 1.086755,0.85008 0.302705,0.20808 0.601401,0.43744 0.945163,0.56689 0.329565,0.12409 1.039212,0.18914 1.039212,0.18914 0,0 0.03751,0.72647 0,1.08675 -0.03167,0.30414 -0.05145,0.62458 -0.189135,0.89762 -0.170783,0.33866 -0.480959,0.58945 -0.756025,0.8506 -0.292529,0.27772 -0.60124,0.54441 -0.944648,0.75602 -0.353975,0.21812 -0.728945,0.42455 -1.133779,0.51935 -0.506262,0.1185 -1.043397,0.10994 -1.559594,0.0475 -0.292087,-0.0353 -0.583666,-0.11131 -0.850077,-0.23616 -0.450961,-0.21134 -0.877163,-0.49747 -1.22835,-0.85059 -0.255672,-0.25708 -0.455139,-0.57192 -0.614434,-0.89762 -0.181625,-0.37136 -0.297074,-0.77587 -0.377753,-1.18132 -0.07402,-0.372 -0.09457,-1.13379 -0.09457,-1.13379 0,0 0.924414,0.0542 1.369941,-0.0475 0.419359,-0.0957 0.831217,-0.26944 1.181322,-0.51935 0.453559,-0.32376 0.834538,-0.75825 1.133782,-1.22834 0.201022,-0.31581 0.425296,-1.03973 0.425296,-1.03973 z m 16.677019,4.72322 c -0.23867,0.01 -0.47693,0.0439 -0.70745,0.0961 -0.53649,0.12158 -1.07371,0.3291 -1.51205,0.66146 -0.35672,0.27046 -0.60372,0.66577 -0.8506,1.03921 -0.20588,0.31145 -0.43014,0.62965 -0.51934,0.99219 -0.14675,0.59642 0.0435,1.23011 0,1.84278 -0.0395,0.55541 -0.0701,1.12217 -0.23617,1.65365 -0.1785,0.57144 -0.53191,1.07262 -0.80356,1.6061 -0.21735,0.42683 -0.54134,0.81221 -0.66146,1.27589 -0.13828,0.53382 -0.10657,1.10544 -0.047,1.65364 0.0491,0.45189 0.19088,0.89042 0.33073,1.32292 0.18266,0.56488 0.32216,1.16648 0.66146,1.65365 0.37599,0.53985 1.46451,1.32291 1.46451,1.32291 l 5.95312,0.047 c 0,0 0.84527,-0.73685 1.18133,-1.18081 0.27236,-0.3598 0.48691,-0.76518 0.66145,-1.18132 0.1523,-0.36308 0.2589,-0.74666 0.33073,-1.13378 0.1038,-0.55938 0.16492,-1.13274 0.1416,-1.70119 -0.0196,-0.47858 -0.088,-0.96146 -0.23616,-1.41697 -0.14157,-0.43536 -0.4097,-0.81939 -0.61444,-1.22886 -0.17323,-0.34648 -0.40524,-0.66902 -0.51934,-1.03921 -0.1732,-0.56192 -0.20616,-1.16098 -0.23617,-1.74822 -0.0249,-0.48784 0.14554,-0.98607 0.047,-1.46451 -0.11225,-0.54515 -0.37802,-1.06457 -0.709,-1.51205 -0.26522,-0.35858 -0.61722,-0.65613 -0.99219,-0.89762 -0.43291,-0.27881 -0.91109,-0.51829 -1.41696,-0.61443 -0.23221,-0.0442 -0.47137,-0.0584 -0.71004,-0.0486 z m 0.001,1.60817 c 0,0 0.22783,0.69137 0.42529,0.99219 0.21397,0.32598 0.4608,0.66326 0.80306,0.85008 0.45006,0.24568 1.51205,0.2837 1.51205,0.2837 0,0 -0.0524,1.13555 -0.33073,1.6061 -0.28438,0.48078 -0.7767,0.83508 -1.27537,1.08676 -0.43312,0.2186 -0.93525,0.38383 -1.41749,0.33073 -0.46911,-0.0517 -0.90375,-0.32367 -1.27589,-0.61392 -0.38797,-0.30259 -0.72189,-0.69559 -0.94465,-1.1343 -0.2352,-0.46317 -0.37827,-1.51153 -0.37827,-1.51153 0,0 0.93267,0.1781 1.37046,0.047 0.44373,-0.13286 0.85786,-0.43101 1.13378,-0.80305 0.23734,-0.32002 0.37776,-1.13378 0.37776,-1.13378 z m -16.678055,1.93683 a 4.7719493,4.7483257 0 0 1 4.771803,4.74855 4.7719493,4.7483257 0 0 1 -4.771803,4.74803 4.7719493,4.7483257 0 0 1 -4.7718,-4.74803 4.7719493,4.7483257 0 0 1 4.7718,-4.74855 z m 16.654795,4.34651 a 2.4804687,2.5749626 0 0 1 2.48047,2.57504 2.4804687,2.5749626 0 0 1 -2.48047,2.57503 2.4804687,2.5749626 0 0 1 -2.48047,-2.57503 2.4804687,2.5749626 0 0 1 2.48047,-2.57504 z"
       style="fill:#000000;fill-opacity:1;stroke:#000000;stroke-width:0.26458332px;stroke-linecap:butt;stroke-linejoin:miter;stroke-opacity:1"
       id="path27" />
  </g>
</svg>
