<svg
   class='chain'
   xmlns:dc="http://purl.org/dc/elements/1.1/"
   xmlns:rdf="http://www.w3.org/1999/02/22-rdf-syntax-ns#"
   xmlns:svg="http://www.w3.org/2000/svg"
   xmlns="http://www.w3.org/2000/svg"
   version="1.1"
   viewBox="0 0 167.44 165.69">
  <g transform="translate(-13.60,-88.78)">
    <path class="blue" d="m 72.76,189.65 -3.77,-0.56 -4.53,0.37 -3.96,2.26 -10.96,11.15 -2.64,3.77 -0.56,3.40 0.18,3.77 0.75,1.51 3.21,-2.83 1.51,-3.59 2.45,-2.83 11.33,-10.96 h 1.32 z" />
    <path class="blue" d="m 54.23,221.68 3.77,0.56 4.53,-0.37 3.96,-2.26 10.96,-11.15 2.64,-3.77 0.56,-3.40 -0.18,-3.77 -0.75,-1.51 -3.21,2.83 -1.51,3.59 -2.45,2.83 -11.33,10.96 h -1.32 z" />
    <path class="blue" d="m 139.85,123.17 -3.77,-0.56 -4.53,0.37 -3.96,2.26 -10.96,11.15 -2.64,3.77 -0.56,3.40 0.18,3.77 0.75,1.51 3.21,-2.83 1.51,-3.59 2.45,-2.83 11.33,-10.96 h 1.32 z" />
    <path class="blue" d="m 121.33,155.21 3.77,0.56 4.53,-0.37 3.96,-2.26 10.96,-11.15 2.64,-3.77 0.56,-3.40 -0.18,-3.77 -0.75,-1.51 -3.21,2.83 -1.51,3.59 -2.45,2.83 -11.33,10.96 H 127 Z" />
    <path class="blue" d="m 173.11,89.34 -3.77,-0.56 -4.53,0.37 -3.96,2.26 -10.96,11.15 -2.64,3.77 -0.56,3.40 0.18,3.77 0.75,1.51 3.21,-2.83 1.51,-3.59 2.45,-2.83 11.33,-10.96 h 1.32 z" />
    <path class="blue" d="m 154.59,121.38 3.77,0.56 4.53,-0.37 3.96,-2.26 10.96,-11.15 2.64,-3.77 0.56,-3.40 -0.18,-3.77 -0.75,-1.51 -3.21,2.83 -1.51,3.59 -2.45,2.83 -11.33,10.96 h -1.32 z" />
    <path class="blue" d="m 40.06,221.87 -3.77,-0.56 -4.53,0.37 -3.96,2.26 -10.96,11.15 -2.64,3.77 -0.56,3.40 0.18,3.77 0.75,1.51 3.21,-2.83 1.51,-3.59 2.45,-2.83 11.33,-10.96 h 1.32 z" />
    <path class="blue" d="m 21.54,253.91 3.77,0.56 4.53,-0.37 3.96,-2.26 10.96,-11.15 2.64,-3.77 0.56,-3.40 -0.18,-3.77 -0.75,-1.51 -3.21,2.83 -1.51,3.59 -2.45,2.83 -11.33,10.96 h -1.32 z" />
    <path class="blue" d="m 125.48,142.02 h -2.12 l -23.29,23.19 -0.99,1.60 0.14,1.55 1.51,1.46 1.84,0.33 22.82,-22.20 2.07,-3.07 L 127,143.02 Z" />
    <path class="blue" d="m 158.89,108.57 h -2.12 l -23.29,23.19 -0.99,1.60 0.14,1.55 1.51,1.46 1.84,0.33 22.82,-22.20 2.07,-3.07 -0.47,-1.88 z" />
    <path class="blue" d="m 91.91,175.57 h -2.12 l -23.29,23.19 -0.99,1.60 0.14,1.55 1.51,1.46 1.84,0.33 22.82,-22.20 2.07,-3.07 -0.47,-1.88 z" />
    <path class="blue" d="m 59.25,208.32 h -2.12 l -23.29,23.19 -0.99,1.60 0.14,1.55 1.51,1.46 1.84,0.33 22.82,-22.20 2.07,-3.07 -0.47,-1.88 z" />
    <path class="orange" d="m 112.65,163.23 0.66,5.21 -0.66,3.07 -1.87,3.60 -3.34,2.53 -2.93,2.67 -2.40,2.67 -2.67,3.47 -2.93,2.00 -3.60,0.80 h -3.47 l -2.40,-1.20 4.87,-4.40 1.80,-0.33 2.80,-2.33 1.46,-2.40 2.53,-2.93 4.27,-3.14 2.80,-2.87 0.06,-1.53 2.67,-3.07 z" />
    <path class="orange" d="m 89.33,158.15 3.40,-0.86 3.14,-0.73 3.60,-0.53 3.47,-0.20 3.14,0.80 -4.74,4.94 -2.20,-0.26 -3.67,0.66 -3.80,0.53 z" />
    <path class="orange" d="m 82.11,165.20 -0.86,3.40 -0.73,3.14 -0.53,3.60 -0.20,3.47 0.80,3.14 4.94,-4.74 -0.26,-2.20 0.66,-3.67 0.53,-3.80 z" />
  </g>
</svg>
