<svg
   class="incident-management"
   xmlns:dc="http://purl.org/dc/elements/1.1/"
   xmlns:rdf="http://www.w3.org/1999/02/22-rdf-syntax-ns#"
   xmlns:svg="http://www.w3.org/2000/svg"
   xmlns="http://www.w3.org/2000/svg"
   version="1.1"
   viewBox="0 0 90.4 104.5">
  
  <g transform="translate(-54.7,-80.0)">
    <path class="ring outer" d="m 55.4,106.3 -0.1,51.7 44.9,25.9 44.5,-25.7 V 106.1 L 99.9,80.6 Z" />
    <path class="ring middle" d="m 100.0,88.2 37.8,22.1 v 43.8 l -37.6,21.6 -38.0,-21.9 0.2,-43.9 z" />
    <path class="ring inner" d="m 70.6,115.1 0.2,33.8 29.1,16.9 29.3,-16.9 0.1,-33.6 -29.3,-16.9 z" />
    <path class="lock" d="m 89.0,125.2 22.4,-0.0 1.5,1.1 0.0,18.5 -1.4,1.1 H 89.0 l -1.1,-1.0 -0.0,-18.8 z" />
    <path class="lock hole" d="m 98.4,136.3 v 4.9 l 3.8,0.0 -0.1,-5.2 c 0,0 1.3,-0.9 1.6,-1.6 0.3,-0.6 0.3,-1.4 0.1,-2.1 -0.2,-0.7 -0.7,-1.4 -1.3,-1.9 -0.5,-0.4 -1.2,-0.7 -1.9,-0.8 -0.7,-0.0 -1.6,0.1 -2.2,0.5 -0.6,0.3 -1.1,0.9 -1.4,1.6 -0.2,0.5 -0.3,1.0 -0.3,1.6 0.0,0.5 0.1,1.1 0.4,1.6 0.3,0.5 1.3,1.4 1.3,1.4 z" />
    <path class="lock" d="m 90.3,123.3 h 3.6 l -0.0,-5.4 c 0,0 0.6,-1.7 1.2,-2.4 0.5,-0.6 1.2,-1.1 2.0,-1.4 0.6,-0.2 1.2,-0.2 1.9,-0.3 1.0,-0.0 2.1,-0.2 3.1,0 0.9,0.2 2.0,0.5 2.7,1.2 0.4,0.4 0.7,0.9 1.0,1.5 0.1,0.3 0.3,1.1 0.3,1.1 l 0.1,5.4 h 3.5 l 0.0,-5.8 c 0,0 -0.6,-1.8 -1.1,-2.6 -0.5,-0.7 -1.1,-1.5 -1.8,-2.1 -0.7,-0.6 -1.5,-1.2 -2.4,-1.6 -0.9,-0.4 -1.9,-0.5 -3.0,-0.7 -1.1,-0.1 -2.3,-0.1 -3.4,0 -0.9,0.1 -1.8,0.5 -2.7,0.8 -0.8,0.3 -1.7,0.6 -2.4,1.2 -0.4,0.3 -0.8,0.9 -1.2,1.4 -0.4,0.5 -0.8,1.2 -1.0,1.8 -0.2,0.5 -0.4,1.6 -0.4,1.6 l -0.1,0.7 z" />
  </g>
</svg>
