<?xml version="1.0" encoding="UTF-8" standalone="no"?>
<svg
   xmlns:dc="http://purl.org/dc/elements/1.1/"
   xmlns:cc="http://creativecommons.org/ns#"
   xmlns:rdf="http://www.w3.org/1999/02/22-rdf-syntax-ns#"
   xmlns:svg="http://www.w3.org/2000/svg"
   xmlns="http://www.w3.org/2000/svg"
   id="svg8"
   version="1.1"
   viewBox="0 0 199.40732 93.427887"
   height="93.427887mm"
   width="199.40732mm">
  <defs
     id="defs2" />
  <metadata
     id="metadata5">
    <rdf:RDF>
      <cc:Work
         rdf:about="">
        <dc:format>image/svg+xml</dc:format>
        <dc:type
           rdf:resource="http://purl.org/dc/dcmitype/StillImage" />
        <dc:title></dc:title>
      </cc:Work>
    </rdf:RDF>
  </metadata>
  <g
     transform="translate(-4.6031841,-86.961802)"
     id="layer1">
    <path
       d="m 194.23438,329.18359 c -2.56554,-0.0313 -5.12852,0.0172 -7.6875,0.16602 -13.20939,0.76818 -26.32702,3.44482 -39.07813,6.97851 -13.43254,3.72254 -26.70097,8.47229 -39.07617,14.88672 -8.629544,4.47295 -16.68826,10.10429 -24.191408,16.28321 -10.157072,8.36445 -19.689944,17.6395 -27.91211,27.91211 -6.881888,8.59808 -12.301314,18.30058 -17.677734,27.91211 -4.130428,7.38406 -8.119162,14.90103 -11.164062,22.79492 -3.020252,7.82997 -5.447854,15.93795 -6.978516,24.18945 -1.646476,8.87584 -2.326172,26.98242 -2.326172,26.98242 l 33.960938,36.75 32.5625,-33.02929 c 0,0 -0.03356,-7.78154 0.466796,-11.62891 0.737492,-5.67084 2.005422,-11.29275 3.720704,-16.74805 1.710228,-5.43923 3.892924,-10.75263 6.513672,-15.8164 2.531009,-4.89037 5.699422,-9.43245 8.837892,-13.95703 3.65903,-5.27505 7.08038,-10.82301 11.63086,-15.35157 5.49568,-5.4692 12.02799,-9.85315 18.60742,-13.95508 7.5328,-4.69629 15.32977,-9.21041 23.72461,-12.0957 8.51313,-2.92596 17.54091,-4.44337 26.51758,-5.11719 7.58329,-0.56923 15.24139,0.0496 22.79492,0.92969 4.86339,0.56667 14.41992,2.79102 14.41992,2.79102 l -21.62695,-44.52149 43.02734,-18.27929 c 0,0 -17.22877,-4.76675 -26.05078,-6.04883 -7.60997,-1.10594 -15.31901,-1.93331 -23.01562,-2.02735 z m 397.97265,0.95899 c -2.48451,-0.0255 -4.9685,0.015 -7.44922,0.13867 -9.54962,0.47618 -19.03029,2.17195 -28.37695,4.1875 -5.5177,1.18986 -10.89455,2.96385 -16.28125,4.65039 -6.87927,2.15386 -20.46875,6.97852 -20.46875,6.97852 l 48.8457,13.02539 -10.23437,42.79883 c 0,0 13.71976,-3.68063 20.93359,-5.11719 5.10437,-1.01647 10.37091,-1.22788 15.57422,-1.11328 7.26062,0.15987 14.52391,1.07222 21.64258,2.50976 8.70652,1.7582 17.59035,3.57494 25.58594,7.44336 7.70774,3.72915 14.32414,9.44134 20.93359,14.88477 6.60404,5.43896 13.20586,11.04466 18.60937,17.67773 4.26679,5.23771 7.60674,11.20662 10.69922,17.21289 3.69117,7.16905 7.37253,14.50102 9.30274,22.33008 1.67697,6.80186 1.86133,20.93359 1.86133,20.93359 l 33.49414,36.28711 33.02929,-36.28711 c 0,0 -0.6774,-15.57198 -1.85937,-23.25976 -1.16043,-7.54749 -2.87812,-15.02954 -5.11719,-22.33008 -2.38961,-7.79131 -5.18326,-15.51177 -8.83984,-22.79492 -3.53269,-7.03635 -8.22932,-13.42889 -12.56055,-20.00391 -4.35386,-6.60933 -8.4228,-13.45759 -13.49023,-19.53711 -4.77396,-5.72742 -10.2232,-10.88783 -15.81641,-15.81836 -7.21296,-6.35841 -14.65658,-12.55681 -22.79492,-17.67773 -7.04342,-4.43196 -14.73308,-7.76736 -22.33008,-11.16406 -8.07027,-3.60831 -16.13916,-7.40136 -24.65625,-9.76954 -9.08761,-2.5268 -18.53268,-3.65443 -27.91211,-4.65234 -7.40959,-0.78833 -14.87068,-1.45662 -22.32422,-1.5332 z m -331.22851,12.69922 -45.82032,19.67382 22.09375,43.12891 c 0,0 11.24132,4.59386 16.28321,7.9082 6.15595,4.04667 11.33652,9.42124 16.74804,14.41993 33.66825,31.09969 97.69141,96.76172 97.69141,96.76172 l -0.92969,-49.7754 43.72852,0.92969 c 0,0 -49.97316,-51.13072 -75.36328,-76.29297 -10.28165,-10.18938 -19.79302,-21.28585 -31.16797,-30.23828 -8.21501,-6.46545 -17.58176,-11.32028 -26.51758,-16.74609 -5.52418,-3.35427 -16.74609,-9.76953 -16.74609,-9.76953 z m 243.30078,13.02539 c 0,0 -11.3784,8.10413 -16.74805,12.56054 -5.82746,4.83635 -11.17522,10.22177 -16.74609,15.35157 -6.21563,5.72349 -12.53507,11.33962 -18.60938,17.21289 -14.89852,14.40544 -43.72851,44.19336 -43.72851,44.19336 l 46.51953,46.05468 c 0,0 31.99162,-31.59798 47.45117,-47.91601 4.60566,-4.86142 8.61158,-10.29737 13.49023,-14.88477 4.34015,-4.08102 9.00978,-7.84694 13.95703,-11.16601 3.97739,-2.66839 12.56055,-6.97852 12.56055,-6.97852 L 553.125,367.49805 Z m -126.53516,131.65234 1.86133,49.77539 c 0,0 53.27026,51.56014 79.08398,78.1543 4.27949,4.40886 8.22339,9.14006 12.56055,13.49219 4.80129,4.81787 9.58332,9.69615 14.88672,13.95507 5.56698,4.47058 11.52413,8.47492 17.67773,12.09571 7.76999,4.5719 15.87022,8.6222 24.18946,12.0957 8.0095,3.3442 24.65625,8.37305 24.65625,8.37305 l -20.00391,-46.98633 36.28516,-16.74609 c 0,0 -16.50791,-5.00654 -24.18946,-8.83985 -6.11917,-3.05363 -11.79289,-6.99358 -17.21289,-11.16406 -5.30736,-4.08382 -10.04261,-8.86636 -14.88672,-13.49023 -30.21944,-28.84543 -88.38867,-88.85352 -88.38867,-88.85352 z m 392.63086,27.44727 -34.42578,36.75 -33.0293,-33.95899 c 0,0 -2.01552,14.76767 -4.1875,21.86328 -2.41961,7.90466 -5.53144,15.6961 -9.76758,22.79493 -3.44995,5.78135 -7.93795,10.92364 -12.56054,15.81836 -5.2786,5.58935 -10.99875,10.82508 -17.21289,15.35156 -6.68546,4.86981 -13.86946,9.14071 -21.40039,12.56054 -7.59028,3.44678 -15.5114,6.48155 -23.72461,7.90821 -6.87678,1.19452 -20.9336,0.46484 -20.9336,0.46484 l -44.19531,21.86328 18.60938,41.86914 c 0,0 15.45564,2.51508 23.25976,2.79102 6.36136,0.22488 12.74435,-0.24042 19.07227,-0.92969 8.28722,-0.90247 16.54719,-2.25465 24.65625,-4.1875 8.68354,-2.06978 17.25536,-4.7004 25.58593,-7.9082 6.86264,-2.64257 13.5919,-5.70393 20.00391,-9.30469 5.84995,-3.28513 11.28043,-7.27576 16.74805,-11.16406 5.23181,-3.72061 10.5386,-7.38229 15.35156,-11.63086 6.49459,-5.73302 12.65531,-11.9039 18.14258,-18.60742 4.87661,-5.95752 8.87214,-12.59165 13.02539,-19.07422 3.41442,-5.32936 7.00182,-10.58913 9.76953,-16.28125 3.99205,-8.21012 7.18362,-16.83059 9.76953,-25.58594 2.11064,-7.14614 3.3474,-14.52876 4.65039,-21.86523 1.15041,-6.47758 2.79297,-19.53711 2.79297,-19.53711 z M 84.666016,516.36133 50.707031,551.7168 18.142578,519.61719 c 0,0 2.009039,12.12809 3.25586,18.14453 1.648638,7.95538 3.138092,15.97711 5.583984,23.72461 2.011196,6.37058 4.646457,12.5406 7.443359,18.60742 2.93299,6.362 5.942878,12.74003 9.767578,18.60937 4.217707,6.47248 9.436168,12.24134 14.421875,18.14258 5.244163,6.20716 10.385186,12.553 16.283204,18.14258 5.92374,5.61396 12.349793,10.72387 19.072265,15.35156 7.097867,4.8861 14.523187,9.37762 22.330077,13.02539 9.11008,4.25666 18.72761,7.4054 28.37695,10.23438 8.69963,2.55054 17.53211,4.83019 26.51563,6.04883 10.15203,1.37714 20.47987,2.03111 30.70508,1.39453 10.99177,-0.68432 21.82468,-3.13528 32.5625,-5.58203 C 241.0651,673.95608 254,669.87891 254,669.87891 l 12.56055,-45.58985 -50.70703,-12.0957 c 0,0 -15.74208,3.22914 -23.72461,3.25586 -7.19348,0.0227 -14.41175,-1.08645 -21.40039,-2.79102 -8.81662,-2.15043 -17.38005,-5.42908 -25.58594,-9.30468 -7.16609,-3.38453 -14.29242,-7.1278 -20.46875,-12.09375 -7.26806,-5.84376 -13.4398,-13.03578 -19.07227,-20.46875 -5.0434,-6.6556 -9.569622,-13.79927 -13.027341,-21.4004 -2.761701,-6.07105 -4.59266,-12.56304 -6.046875,-19.07226 -1.02327,-4.58026 -1.861328,-13.95703 -1.861328,-13.95703 z m 249.349604,2.32617 c 0,0 -38.82691,40.57686 -59.08203,60.01172 -4.8321,4.63642 -9.50245,9.50835 -14.88671,13.49023 -6.82088,5.04431 -21.86329,13.02539 -21.86329,13.02539 l 43.26368,11.16602 -12.09571,46.98437 c 0,0 12.71044,-5.98758 18.60742,-9.76953 5.76994,-3.70046 11.11463,-8.05814 16.28321,-12.56054 26.87169,-23.40817 76.29297,-74.89649 76.29297,-74.89649 z"
       style="fill:#000000;stroke:#000000;stroke-width:0.99999994px;stroke-linecap:butt;stroke-linejoin:miter;stroke-opacity:1"
       transform="scale(0.26458333)"
       id="path911" />
  </g>
</svg>
