<?xml version="1.0" encoding="UTF-8" standalone="no"?>
<svg
   xmlns:dc="http://purl.org/dc/elements/1.1/"
   xmlns:cc="http://creativecommons.org/ns#"
   xmlns:rdf="http://www.w3.org/1999/02/22-rdf-syntax-ns#"
   xmlns:svg="http://www.w3.org/2000/svg"
   xmlns="http://www.w3.org/2000/svg"
   id="svg851"
   version="1.1"
   viewBox="0 0 167.44344 165.69531"
   height="165.69531mm"
   width="167.44344mm">
  <defs
     id="defs845" />
  <metadata
     id="metadata848">
    <rdf:RDF>
      <cc:Work
         rdf:about="">
        <dc:format>image/svg+xml</dc:format>
        <dc:type
           rdf:resource="http://purl.org/dc/dcmitype/StillImage" />
        <dc:title></dc:title>
      </cc:Work>
    </rdf:RDF>
  </metadata>
  <g
     transform="translate(-13.607148,-88.782363)"
     id="layer1">
    <path
       id="path1409"
       d="m 72.760416,189.65476 -3.779761,-0.56697 -4.535715,0.37798 -3.96875,2.26786 -10.961309,11.1503 -2.645833,3.77976 -0.566965,3.40178 0.188989,3.77977 0.755952,1.5119 3.212798,-2.83482 1.511903,-3.59078 2.456847,-2.83482 11.339285,-10.96131 h 1.322916 z"
       style="fill:#00b1e6;fill-opacity:1;stroke:none;stroke-width:0.26458332px;stroke-linecap:butt;stroke-linejoin:miter;stroke-opacity:1" />
    <path
       id="path1409-8"
       d="m 54.239583,221.68824 3.779761,0.56697 4.535715,-0.37798 3.96875,-2.26786 10.961309,-11.1503 2.645833,-3.77976 0.566965,-3.40178 -0.188989,-3.77977 -0.755952,-1.5119 -3.212798,2.83482 -1.511903,3.59078 -2.456847,2.83482 -11.339285,10.96131 h -1.322916 z"
       style="fill:#00b1e6;fill-opacity:1;stroke:none;stroke-width:0.26458332px;stroke-linecap:butt;stroke-linejoin:miter;stroke-opacity:1" />
    <path
       id="path1409-2"
       d="m 139.85119,123.1782 -3.77976,-0.56697 -4.53572,0.37798 -3.96875,2.26786 -10.9613,11.1503 -2.64584,3.77976 -0.56696,3.40178 0.18899,3.77977 0.75595,1.5119 3.2128,-2.83482 1.5119,-3.59078 2.45685,-2.83482 11.33928,-10.96131 h 1.32292 z"
       style="fill:#00b1e6;fill-opacity:1;stroke:none;stroke-width:0.26458332px;stroke-linecap:butt;stroke-linejoin:miter;stroke-opacity:1" />
    <path
       id="path1409-8-1"
       d="m 121.33036,155.21168 3.77976,0.56697 4.53571,-0.37798 3.96875,-2.26786 10.96131,-11.1503 2.64584,-3.77976 0.56696,-3.40178 -0.18899,-3.77977 -0.75595,-1.5119 -3.2128,2.83482 -1.5119,3.59078 -2.45685,2.83482 -11.33928,10.96131 H 127 Z"
       style="fill:#00b1e6;fill-opacity:1;stroke:none;stroke-width:0.26458332px;stroke-linecap:butt;stroke-linejoin:miter;stroke-opacity:1" />
    <path
       id="path1409-22"
       d="m 173.11309,89.349333 -3.77976,-0.56697 -4.53572,0.37798 -3.96875,2.26786 -10.9613,11.150297 -2.64584,3.77976 -0.56696,3.40178 0.18899,3.77977 0.75595,1.5119 3.2128,-2.83482 1.5119,-3.59078 2.45685,-2.83482 11.33928,-10.961307 h 1.32292 z"
       style="fill:#00b1e6;fill-opacity:1;stroke:none;stroke-width:0.26458332px;stroke-linecap:butt;stroke-linejoin:miter;stroke-opacity:1" />
    <path
       id="path1409-8-7"
       d="m 154.59226,121.38281 3.77976,0.56697 4.53571,-0.37798 3.96875,-2.26786 10.96131,-11.1503 2.64584,-3.77976 0.56696,-3.40178 -0.18899,-3.779767 -0.75595,-1.5119 -3.2128,2.83482 -1.5119,3.590777 -2.45685,2.83482 -11.33928,10.96131 h -1.32292 z"
       style="fill:#00b1e6;fill-opacity:1;stroke:none;stroke-width:0.26458332px;stroke-linecap:butt;stroke-linejoin:miter;stroke-opacity:1" />
    <path
       id="path1409-9"
       d="m 40.065478,221.87723 -3.77976,-0.56697 -4.53572,0.37798 -3.96875,2.26786 -10.9613,11.1503 -2.64584,3.77976 -0.56696,3.40178 0.18899,3.77977 0.75595,1.5119 3.2128,-2.83482 1.5119,-3.59078 2.45685,-2.83482 11.33928,-10.96131 h 1.32292 z"
       style="fill:#00b1e6;fill-opacity:1;stroke:none;stroke-width:0.26458332px;stroke-linecap:butt;stroke-linejoin:miter;stroke-opacity:1" />
    <path
       id="path1409-8-8"
       d="m 21.544648,253.91071 3.77976,0.56697 4.53571,-0.37798 3.96875,-2.26786 10.96131,-11.1503 2.64584,-3.77976 0.56696,-3.40178 -0.18899,-3.77977 -0.75595,-1.5119 -3.2128,2.83482 -1.5119,3.59078 -2.45685,2.83482 -11.33928,10.96131 h -1.32292 z"
       style="fill:#00b1e6;fill-opacity:1;stroke:none;stroke-width:0.26458332px;stroke-linecap:butt;stroke-linejoin:miter;stroke-opacity:1" />
    <path
       id="path1475"
       d="m 125.4881,142.02976 h -2.12612 l -23.29278,23.19829 -0.992191,1.6064 0.14174,1.55915 1.511901,1.46466 1.84264,0.33073 22.82031,-22.2061 2.07887,-3.07106 L 127,143.02195 Z"
       style="fill:#00b1e6;fill-opacity:1;stroke:none;stroke-width:0.26458332px;stroke-linecap:butt;stroke-linejoin:miter;stroke-opacity:1" />
    <path
       id="path1475-1"
       d="m 158.89174,108.57887 h -2.12612 l -23.29278,23.19829 -0.99219,1.6064 0.14174,1.55915 1.5119,1.46466 1.84264,0.33073 22.82031,-22.2061 2.07887,-3.07106 -0.47247,-1.88988 z"
       style="fill:#00b1e6;fill-opacity:1;stroke:none;stroke-width:0.26458332px;stroke-linecap:butt;stroke-linejoin:miter;stroke-opacity:1" />
    <path
       id="path1475-7"
       d="m 91.919091,175.57515 h -2.12612 l -23.29278,23.19829 -0.99219,1.6064 0.14174,1.55915 1.5119,1.46466 1.84264,0.33073 22.82031,-22.2061 2.07887,-3.07106 -0.47247,-1.88988 z"
       style="fill:#00b1e6;fill-opacity:1;stroke:none;stroke-width:0.26458332px;stroke-linecap:butt;stroke-linejoin:miter;stroke-opacity:1" />
    <path
       id="path1475-7-3"
       d="m 59.259233,208.32324 h -2.12612 l -23.29278,23.19829 -0.99219,1.6064 0.14174,1.55915 1.5119,1.46465 1.84264,0.33074 22.82031,-22.2061 2.07887,-3.07106 -0.47247,-1.88988 z"
       style="fill:#00b1e6;fill-opacity:1;stroke:none;stroke-width:0.26458332px;stroke-linecap:butt;stroke-linejoin:miter;stroke-opacity:1" />
    <path
       id="path1522"
       d="m 112.65411,163.2316 0.66817,5.21175 -0.66817,3.0736 -1.87089,3.60814 -3.34087,2.53906 -2.93996,2.6727 -2.40543,2.67269 -2.672696,3.47451 -2.939965,2.00452 -3.608139,0.80181 h -3.474503 l -2.405428,-1.20272 4.877671,-4.40994 1.804069,-0.33409 2.80633,-2.33861 1.469981,-2.40542 2.53906,-2.93997 4.27631,-3.14041 2.80633,-2.87315 0.0668,-1.5368 2.6727,-3.0736 z"
       style="fill:#faac14;fill-opacity:1;stroke:none;stroke-width:0.26458332px;stroke-linecap:butt;stroke-linejoin:miter;stroke-opacity:1" />
    <path
       id="path1524"
       d="m 89.334839,158.15348 3.407685,-0.86863 3.140419,-0.73499 3.608139,-0.53454 3.474498,-0.20045 3.14042,0.80181 -4.74403,4.94448 -2.204978,-0.26726 -3.674954,0.66817 -3.808592,0.53454 z"
       style="fill:#faac14;fill-opacity:1;stroke:none;stroke-width:0.26458332px;stroke-linecap:butt;stroke-linejoin:miter;stroke-opacity:1" />
    <path
       id="path1524-9"
       d="m 82.118562,165.20271 -0.86863,3.40768 -0.73499,3.14042 -0.53454,3.60814 -0.20045,3.4745 0.80181,3.14042 4.94448,-4.74403 -0.26726,-2.20498 0.66817,-3.67495 0.53454,-3.80859 z"
       style="fill:#faac14;fill-opacity:1;stroke:none;stroke-width:0.26458332px;stroke-linecap:butt;stroke-linejoin:miter;stroke-opacity:1" />
  </g>
</svg>
