<?xml version="1.0" encoding="UTF-8" standalone="no"?>
<svg
   xmlns:dc="http://purl.org/dc/elements/1.1/"
   xmlns:cc="http://creativecommons.org/ns#"
   xmlns:rdf="http://www.w3.org/1999/02/22-rdf-syntax-ns#"
   xmlns:svg="http://www.w3.org/2000/svg"
   xmlns="http://www.w3.org/2000/svg"
   xmlns:sodipodi="http://sodipodi.sourceforge.net/DTD/sodipodi-0.dtd"
   xmlns:inkscape="http://www.inkscape.org/namespaces/inkscape"
   viewBox="0 0 63.52525 55.975327"
   version="1.1"
   id="svg4"
   sodipodi:docname="nested.svg"
   inkscape:version="0.92.4 (5da689c313, 2019-01-14)">
  <metadata
     id="metadata10">
    <rdf:RDF>
      <cc:Work
         rdf:about="">
        <dc:format>image/svg+xml</dc:format>
        <dc:type
           rdf:resource="http://purl.org/dc/dcmitype/StillImage" />
        <dc:title></dc:title>
      </cc:Work>
    </rdf:RDF>
  </metadata>
  <defs
     id="defs8" />
  <sodipodi:namedview
     pagecolor="#ffffff"
     bordercolor="#666666"
     borderopacity="1"
     objecttolerance="10"
     gridtolerance="10"
     guidetolerance="10"
     inkscape:pageopacity="0"
     inkscape:pageshadow="2"
     inkscape:window-width="1920"
     inkscape:window-height="1137"
     id="namedview6"
     showgrid="false"
     inkscape:zoom="8.4322867"
     inkscape:cx="1.5953518"
     inkscape:cy="16.031849"
     inkscape:window-x="-8"
     inkscape:window-y="-7"
     inkscape:window-maximized="1"
     inkscape:current-layer="svg4" />
  <path
     style="color:#000000;font-style:normal;font-variant:normal;font-weight:normal;font-stretch:normal;font-size:medium;line-height:normal;font-family:sans-serif;font-variant-ligatures:normal;font-variant-position:normal;font-variant-caps:normal;font-variant-numeric:normal;font-variant-alternates:normal;font-feature-settings:normal;text-indent:0;text-align:start;text-decoration:none;text-decoration-line:none;text-decoration-style:solid;text-decoration-color:#000000;letter-spacing:normal;word-spacing:normal;text-transform:none;writing-mode:lr-tb;direction:ltr;text-orientation:mixed;dominant-baseline:auto;baseline-shift:baseline;text-anchor:start;white-space:normal;shape-padding:0;clip-rule:nonzero;display:inline;overflow:visible;visibility:visible;opacity:1;isolation:auto;mix-blend-mode:normal;color-interpolation:sRGB;color-interpolation-filters:linearRGB;solid-color:#000000;solid-opacity:1;vector-effect:none;fill:#000000;fill-opacity:1;fill-rule:nonzero;stroke:none;stroke-width:2;stroke-linecap:butt;stroke-linejoin:miter;stroke-miterlimit:4;stroke-dasharray:none;stroke-dashoffset:0;stroke-opacity:1;color-rendering:auto;image-rendering:auto;shape-rendering:auto;text-rendering:auto;enable-background:accumulate"
     d="M 17.755859 0.013671875 C 15.9525 0.038809335 14.42707 1.0520604 13.216797 2.3046875 C 12.006523 3.5573146 11.061859 5.092821 10.396484 6.4628906 C 9.4516655 8.4083676 9.5029295 11.075296 9.6640625 13.355469 C 9.8029198 15.320421 10.03347 16.512885 10.109375 16.935547 C 9.768056 17.218256 8.4061537 18.32546 6.5195312 20.208984 C 4.4111754 22.313878 2.0724307 24.909668 1.140625 27.396484 C -0.56046801 31.936389 -0.18214265 37.138341 1.1152344 41.654297 C 1.9098862 44.420347 4.0242085 47.727865 5.9414062 50.445312 C 7.8586041 53.162762 9.5957031 55.248047 9.5957031 55.248047 L 9.8945312 55.607422 L 26.599609 55.607422 L 26.900391 55.246094 C 26.900391 55.246094 28.059644 53.754401 29.085938 52.410156 C 30.000736 53.625685 31.074219 55.03125 31.074219 55.03125 L 31.375 55.392578 L 44.140625 55.392578 L 44.441406 55.03125 C 44.441406 55.03125 45.647341 53.448525 46.689453 52.044922 C 47.813376 53.711521 49.1875 55.613281 49.1875 55.613281 L 49.488281 55.974609 L 58.310547 55.974609 L 58.609375 55.615234 C 58.609375 55.615234 59.490074 54.557853 60.460938 53.181641 C 61.431799 51.805429 62.509868 50.152414 62.945312 48.636719 C 63.615425 46.304158 63.823927 43.606006 62.919922 41.193359 C 62.392483 39.785727 61.188453 38.493332 60.115234 37.421875 C 59.263857 36.571895 58.784474 36.187478 58.496094 35.945312 C 58.553064 35.606417 58.629246 35.240328 58.689453 34.382812 C 58.771793 33.21008 58.838656 31.847423 58.273438 30.683594 C 57.530788 29.154403 56.094244 27.316427 53.857422 27.183594 C 52.720318 27.116054 51.778999 27.715671 51.087891 28.410156 C 50.396782 29.104641 49.886872 29.939266 49.525391 30.683594 C 49.410943 30.919256 49.409584 31.182889 49.341797 31.431641 C 48.543187 30.358324 47.636693 29.324941 46.728516 28.417969 C 45.359694 27.050963 44.447968 26.309833 44.125 26.041016 C 44.19412 25.647641 44.344059 24.881442 44.443359 23.470703 C 44.564849 21.744722 44.624079 19.730272 43.869141 18.175781 C 42.801355 15.977105 40.738312 13.387551 37.666016 13.205078 L 37.664062 13.205078 C 37.583652 13.200478 37.491609 13.195666 37.384766 13.197266 C 35.938141 13.217396 34.738244 14.024825 33.804688 14.992188 C 32.87113 15.959549 32.154138 17.130468 31.646484 18.175781 C 31.168663 19.159661 31.059569 20.317997 31.042969 21.480469 C 28.819642 19.117066 26.862664 17.318195 26.384766 16.921875 C 26.461826 16.491514 26.692176 15.313012 26.830078 13.355469 C 26.990753 11.075306 27.04045 8.4082162 26.095703 6.4628906 C 24.702758 3.5946814 22.013121 0.2535751 18.105469 0.021484375 C 17.978759 0.013543965 17.861638 0.012543895 17.757812 0.013671875 L 17.755859 0.013671875 z M 17.78125 2.0136719 L 17.783203 2.0136719 C 17.860853 2.012862 17.925942 2.0139355 17.982422 2.0175781 L 17.984375 2.0175781 L 17.988281 2.0175781 C 20.762459 2.1823474 23.086367 4.8493599 24.294922 7.3378906 C 24.868161 8.5182455 24.985469 11.0645 24.833984 13.214844 C 24.6825 15.365188 24.347656 17.138672 24.347656 17.138672 L 24.236328 17.720703 L 24.697266 18.097656 C 24.697266 18.097656 28.408721 21.191741 31.078125 24.412109 L 30.839844 26.519531 C 30.094579 27.169253 28.993374 28.145526 27.828125 29.396484 C 26.546543 30.772332 25.287852 32.315111 24.695312 33.896484 C 23.392785 37.372679 23.686191 41.321902 24.669922 44.746094 C 25.219675 46.659693 26.56133 48.810388 27.869141 50.714844 C 26.725056 52.247018 25.825719 53.382988 25.640625 53.607422 L 10.857422 53.607422 C 10.625872 53.32706 9.2997513 51.735982 7.5761719 49.292969 C 5.7090021 46.64643 3.6792055 43.338545 3.0371094 41.103516 C 1.8253527 36.885591 1.5243497 32.069124 3.0117188 28.099609 C 3.697268 26.270006 5.9023433 23.652915 7.9335938 21.625 C 9.9648442 19.597085 11.796875 18.097656 11.796875 18.097656 L 12.257812 17.722656 L 12.146484 17.138672 C 12.146484 17.138672 11.81016 15.365165 11.658203 13.214844 C 11.506246 11.064523 11.624103 8.518094 12.197266 7.3378906 C 12.791993 6.1132902 13.65708 4.7254741 14.654297 3.6933594 C 15.650947 2.6618317 16.729928 2.0290295 17.78125 2.0136719 z M 37.412109 15.197266 C 37.442989 15.196819 37.490739 15.197886 37.548828 15.201172 C 39.487908 15.316339 41.185019 17.231897 42.068359 19.050781 C 42.45191 19.84055 42.56157 21.733921 42.449219 23.330078 C 42.336867 24.926235 42.087891 26.244141 42.087891 26.244141 L 41.976562 26.828125 L 42.4375 27.203125 C 42.4375 27.203125 43.802956 28.320589 45.316406 29.832031 C 46.768863 31.282561 48.282909 33.125446 48.833984 34.414062 L 48.345703 36.894531 C 45.159031 40.114553 43.569499 44.009682 44.851562 48.628906 L 44.851562 48.632812 L 44.853516 48.636719 C 45.003848 49.160003 45.291353 49.687689 45.5625 50.214844 C 44.370511 51.888242 43.378279 53.143764 43.173828 53.392578 L 32.339844 53.392578 C 32.115612 53.119754 31.179663 51.997168 29.910156 50.191406 C 28.529519 48.227572 27.049091 45.787078 26.591797 44.195312 C 25.693673 41.069105 25.47758 37.505474 26.566406 34.599609 C 26.9656 33.534239 28.089309 32.049864 29.291016 30.759766 C 30.492722 29.469667 31.762059 28.336461 32.445312 27.748047 C 32.587511 27.625587 32.623214 27.594364 32.742188 27.492188 C 32.883477 27.370846 33.095703 27.189453 33.095703 27.189453 L 33.535156 26.8125 L 33.427734 26.244141 C 33.427734 26.244141 33.264791 25.077759 33.144531 23.957031 L 33.166016 23.763672 L 33.111328 23.697266 C 33.093618 23.507118 33.080556 23.531162 33.066406 23.330078 C 32.954055 21.73392 33.063706 19.84055 33.447266 19.050781 C 33.884687 18.150085 34.523543 17.127552 35.244141 16.380859 C 35.964738 15.634167 36.717298 15.206935 37.412109 15.197266 z M 53.740234 29.179688 C 54.844333 29.245258 55.914565 30.409425 56.472656 31.558594 C 56.666438 31.957605 56.768543 33.201138 56.695312 34.244141 C 56.622082 35.287143 56.458984 36.148437 56.458984 36.148438 L 56.347656 36.732422 L 56.808594 37.107422 C 56.808594 37.107422 57.707029 37.843431 58.703125 38.837891 C 59.699221 39.83235 60.767587 41.145907 61.048828 41.896484 C 61.739043 43.738558 61.607885 46.051558 61.023438 48.085938 C 60.740502 49.070782 59.747004 50.724003 58.826172 52.029297 C 58.048976 53.130984 57.551564 53.725512 57.347656 53.974609 L 50.472656 53.974609 C 50.199739 53.639636 48.681608 51.802886 47.583984 49.855469 C 47.208929 49.190042 46.910257 48.549466 46.777344 48.087891 C 46.777344 48.087891 46.775391 48.085938 46.775391 48.085938 C 45.64591 44.005981 46.926643 41.011956 49.974609 38.050781 C 50.318732 37.716458 50.650365 37.39815 51.005859 37.095703 L 51.447266 36.71875 L 51.339844 36.148438 C 51.339844 36.148438 51.178697 35.287145 51.105469 34.244141 C 51.032239 33.201137 51.132389 31.957609 51.326172 31.558594 C 51.61506 30.963742 52.045537 30.282884 52.505859 29.820312 C 52.966182 29.357741 53.387339 29.158727 53.740234 29.179688 z "
     id="path2" />
  <g
     inkscape:groupmode="layer"
     id="layer1"
     inkscape:label="Layer 1" />
</svg>
