<svg width="1280" height="454" xmlns="http://www.w3.org/2000/svg" xmlns:xlink="http://www.w3.org/1999/xlink" overflow="hidden"><defs><clipPath id="clip0"><rect x="0" y="0" width="1280" height="454"/></clipPath></defs><g clip-path="url(#clip0)"><rect x="0" y="0" width="1280" height="454.501" fill="#FFFFFF"/><rect x="22.5001" y="24.5271" width="761" height="406.448" stroke="#000000" stroke-linejoin="round" stroke-miterlimit="10" fill="#F2F2F2"/><text font-family="Calibri,Calibri_MSFontService,sans-serif" font-weight="700" font-size="24" transform="matrix(1 0 0 1.0011 31.9681 51)">Build Node or PC</text><rect x="53.5001" y="88.5976" width="192" height="305.336" stroke="#000000" stroke-linejoin="round" stroke-miterlimit="10" fill="#FFC000"/><text font-family="Calibri,Calibri_MSFontService,sans-serif" font-weight="400" font-size="24" transform="matrix(1 0 0 1.0011 90.8963 115)">Signing Tool</text><rect x="278.5" y="88.5976" width="185" height="305.336" stroke="#000000" stroke-linejoin="round" stroke-miterlimit="10" fill="#FFC000"/><text font-family="Calibri,Calibri_MSFontService,sans-serif" font-weight="400" font-size="24" transform="matrix(1 0 0 1.0011 305.249 115)">API or Engine</text><rect x="496.5" y="88.5976" width="253" height="305.336" stroke="#000000" stroke-linejoin="round" stroke-miterlimit="10" fill="#FFC000"/><text font-family="Calibri,Calibri_MSFontService,sans-serif" font-weight="400" font-size="24" transform="matrix(1 0 0 1.0011 546.136 115)">Crypto Provider</text><rect x="856.5" y="88.5976" width="229" height="305.336" stroke="#000000" stroke-linejoin="round" stroke-miterlimit="10" fill="#00B0F0"/><text fill="#FFFFFF" font-family="Calibri,Calibri_MSFontService,sans-serif" font-weight="700" font-size="24" transform="matrix(1 0 0 1.0011 927.464 115)">SignPath</text><rect x="1127.5" y="88.5976" width="123" height="305.336" stroke="#000000" stroke-linejoin="round" stroke-miterlimit="10" fill="#FFC000"/><text font-family="Calibri,Calibri_MSFontService,sans-serif" font-weight="700" font-size="24" transform="matrix(1 0 0 1.0011 1164.39 115)">HSM</text><path d="M245.5 172.357 266 172.357 266 173.024 245.5 173.024ZM264.667 166.016 278 172.69 264.667 179.364Z"/><path d="M463.5 172.357 484 172.357 484 173.024 463.5 173.024ZM482.667 166.016 496 172.69 482.667 179.364Z"/><path d="M749.5 172.357 844.399 172.357 844.399 173.024 749.5 173.024ZM843.065 166.016 856.399 172.69 843.065 179.364Z"/><path d="M1085.5 172.357 1115.07 172.357 1115.07 173.024 1085.5 173.024ZM1113.74 166.016 1127.07 172.69 1113.74 179.364Z"/><path d="M1.07679e-06-0.333333 20.5001-0.333267 20.5001 0.3334-1.07679e-06 0.333333ZM19.1667-6.6666 32.5 0.000104987 19.1667 6.66673Z" transform="matrix(-1 0 0 1.0011 278 200.721)"/><path d="M1.07679e-06-0.333333 20.5001-0.333267 20.5001 0.3334-1.07679e-06 0.333333ZM19.1667-6.6666 32.5 0.000104987 19.1667 6.66673Z" transform="matrix(-1 0 0 1.0011 496 200.721)"/><path d="M3.27372e-07-0.333333 94.8987-0.33324 94.8987 0.333427-3.27372e-07 0.333333ZM93.5654-6.66657 106.899 0.000104987 93.5653 6.66676Z" transform="matrix(-1 0 0 1.0011 856.399 200.721)"/><path d="M8.41751e-07-0.333333 29.5748-0.333259 29.5748 0.333408-8.41751e-07 0.333333ZM28.2415-6.66659 41.5748 0.000104987 28.2415 6.66674Z" transform="matrix(-1 0 0 1.0011 1127.07 200.721)"/><text font-family="Calibri,Calibri_MSFontService,sans-serif" font-weight="400" font-size="19" transform="matrix(1 0 0 1.0011 69.5117 174)">calculate hash digest<tspan font-size="19" x="226.221" y="17.9802">call crypto provider</tspan><tspan font-size="19" x="441.53" y="6.99229">call SignPath with credentials, </tspan><tspan font-size="19" x="471.943" y="29.967">project, signing policy</tspan><tspan fill="#FFFFFF" font-family="Arial,Arial_MSFontService,sans-serif" font-size="19" x="796.334" y="-13.9846">•</tspan><tspan fill="#FFFFFF" font-size="19" x="815.534" y="-13.9846">verify permissions</tspan><tspan fill="#FFFFFF" font-family="Arial,Arial_MSFontService,sans-serif" font-size="19" x="796.334" y="8.99009">•</tspan><tspan fill="#FFFFFF" font-size="19" x="815.534" y="8.99009">select key/certificate</tspan><tspan fill="#FFFFFF" font-family="Arial,Arial_MSFontService,sans-serif" font-size="19" x="796.334" y="30.9659">•</tspan><tspan fill="#FFFFFF" font-size="19" x="815.534" y="30.9659">call HSM</tspan><tspan fill="#FFFFFF" font-family="Arial,Arial_MSFontService,sans-serif" font-size="19" x="796.334" y="53.9405">•</tspan><tspan fill="#FFFFFF" font-size="19" x="815.534" y="53.9405">audit signing</tspan><tspan font-size="19" x="1083.38" y="7.99119">sign hash </tspan><tspan font-size="19" x="1095.81" y="30.9659">digest</tspan><tspan font-size="19" x="-2.71002" y="31.9648">write signature to file</tspan></text><rect x="64.5001" y="256.783" width="170" height="33.0364" stroke="#000000" stroke-linejoin="round" stroke-miterlimit="10" fill="#7F7F7F"/><text fill="#FFFFFF" font-family="Calibri,Calibri_MSFontService,sans-serif" font-weight="400" font-size="19" transform="matrix(1 0 0 1.0011 115.764 279)">OpenSSL</text><rect x="289.5" y="256.783" width="162" height="33.0364" stroke="#000000" stroke-linejoin="round" stroke-miterlimit="10" fill="#7F7F7F"/><text fill="#FFFFFF" font-family="Calibri,Calibri_MSFontService,sans-serif" font-weight="400" font-size="19" transform="matrix(1 0 0 1.0011 310.582 279)">Cryptoki engine</text><rect x="512.5" y="256.783" width="221" height="33.0364" stroke="#000000" stroke-linejoin="round" stroke-miterlimit="10" fill="#00B0F0"/><text fill="#FFFFFF" font-family="Calibri,Calibri_MSFontService,sans-serif" font-weight="400" font-size="19" transform="matrix(1 0 0 1.0011 529.292 279)">SignPath Cryptoki library</text><rect x="64.5001" y="322.856" width="170" height="32.0353" stroke="#000000" stroke-linejoin="round" stroke-miterlimit="10" fill="#7F7F7F"/><text fill="#FFFFFF" font-family="Calibri,Calibri_MSFontService,sans-serif" font-weight="400" font-size="19" transform="matrix(1 0 0 1.0011 101.981 344)">SignTool.exe</text><rect x="289.5" y="342.878" width="162" height="33.0364" stroke="#000000" stroke-linejoin="round" stroke-miterlimit="10" fill="#7F7F7F"/><text fill="#FFFFFF" font-family="Calibri,Calibri_MSFontService,sans-serif" font-weight="400" font-size="19" transform="matrix(1 0 0 1.0011 353.332 365)">CNG</text><rect x="512.5" y="342.878" width="221" height="33.0364" stroke="#000000" stroke-linejoin="round" stroke-miterlimit="10" fill="#00B0F0"/><text fill="#FFFFFF" font-family="Calibri,Calibri_MSFontService,sans-serif" font-weight="400" font-size="19" transform="matrix(1 0 0 1.0011 573.732 365)">SignPath KSP</text><rect x="289.5" y="299.83" width="162" height="33.0364" stroke="#000000" stroke-linejoin="round" stroke-miterlimit="10" fill="#7F7F7F"/><text fill="#FFFFFF" font-family="Calibri,Calibri_MSFontService,sans-serif" font-weight="400" font-size="19" transform="matrix(1 0 0 1.0011 352.665 322)">CAPI</text><rect x="512.5" y="299.83" width="221" height="32.0353" stroke="#000000" stroke-linejoin="round" stroke-miterlimit="10" fill="#00B0F0"/><text fill="#FFFFFF" font-family="Calibri,Calibri_MSFontService,sans-serif" font-weight="400" font-size="19" transform="matrix(1 0 0 1.0011 573.482 321)">SignPath CSP<tspan fill="#000000" font-size="19" x="221.354" y="-89.9009">HTTPS</tspan><tspan fill="#000000" font-size="19" x="227.214" y="-66.9262">REST</tspan></text></g></svg>