<svg width="4237" height="1464" xmlns="http://www.w3.org/2000/svg" xmlns:xlink="http://www.w3.org/1999/xlink" xml:space="preserve" overflow="hidden"><g transform="translate(-60 -73)"><rect x="77.4998" y="82.5" width="2614" height="1453" stroke="#000000" stroke-width="3.4375" stroke-linejoin="round" stroke-miterlimit="10" fill="#F2F2F2"/><text font-family="Calibri,Calibri_MSFontService,sans-serif" font-weight="700" font-size="83" transform="matrix(1 0 0 1 109.89 176)">Build Node or PC</text><rect x="181.5" y="301.5" width="662" height="1176" stroke="#000000" stroke-width="3.4375" stroke-linejoin="round" stroke-miterlimit="10" fill="#FFC000"/><text font-family="Calibri,Calibri_MSFontService,sans-serif" font-weight="400" font-size="83" transform="matrix(1 0 0 1 312.456 395)">Signing Tool</text><rect x="954.5" y="301.5" width="637" height="1176" stroke="#000000" stroke-width="3.4375" stroke-linejoin="round" stroke-miterlimit="10" fill="#FFC000"/><text font-family="Calibri,Calibri_MSFontService,sans-serif" font-weight="400" font-size="83" transform="matrix(1 0 0 1 1049.29 395)">API or Engine</text><rect x="1704.5" y="301.5" width="872" height="1176" stroke="#000000" stroke-width="3.4375" stroke-linejoin="round" stroke-miterlimit="10" fill="#FFC000"/><text font-family="Calibri,Calibri_MSFontService,sans-serif" font-weight="400" font-size="83" transform="matrix(1 0 0 1 1877.34 395)">Crypto Provider</text><rect x="2943.5" y="301.5" width="787" height="1051" stroke="#000000" stroke-width="3.4375" stroke-linejoin="round" stroke-miterlimit="10" fill="#00B0F0"/><text fill="#FFFFFF" font-family="Calibri,Calibri_MSFontService,sans-serif" font-weight="700" font-size="83" transform="matrix(1 0 0 1 3188.16 395)">SignPath</text><rect x="3873.5" y="301.5" width="422" height="1051" stroke="#000000" stroke-width="3.4375" stroke-linejoin="round" stroke-miterlimit="10" fill="#FFC000"/><text font-family="Calibri,Calibri_MSFontService,sans-serif" font-weight="700" font-size="83" transform="matrix(1 0 0 1 4002.6 395)">HSM</text><path d="M843 589.854 913.469 589.854 913.469 592.146 843 592.146ZM908.886 568.083 954.719 591 908.885 613.917Z"/><path d="M1592 589.854 1662.47 589.854 1662.47 592.146 1592 592.146ZM1657.89 568.083 1703.72 591 1657.89 613.917Z"/><path d="M2576 588.854 2902.21 588.854 2902.21 591.146 2576 591.146ZM2897.63 567.083 2943.46 590 2897.63 612.917Z"/><path d="M3730 588.854 3831.66 588.854 3831.66 591.146 3730 591.146ZM3827.08 567.083 3872.91 590 3827.08 612.917Z"/><path d="M3.70145e-06-1.14583 70.469-1.14561 70.4689 1.14606-3.70145e-06 1.14583ZM65.8857-22.9165 111.719 0.000360892 65.8855 22.9169Z" transform="matrix(-1 0 0 1 954.719 688)"/><path d="M3.70145e-06-1.14583 70.469-1.14561 70.4689 1.14606-3.70145e-06 1.14583ZM65.8857-22.9165 111.719 0.000360892 65.8855 22.9169Z" transform="matrix(-1 0 0 1 1703.72 688)"/><path d="M1.12534e-06-1.14583 326.214-1.14551 326.214 1.14615-1.12534e-06 1.14583ZM321.631-22.9164 367.464 0.000360892 321.631 22.917Z" transform="matrix(-1 0 0 1 2943.46 687)"/><path d="M2.89352e-06-1.14583 101.663-1.14558 101.663 1.14609-2.89352e-06 1.14583ZM97.0801-22.9164 142.913 0.000360892 97.08 22.9169Z" transform="matrix(-1 0 0 1 3872.91 687)"/><text font-family="Calibri,Calibri_MSFontService,sans-serif" font-weight="400" font-size="64" transform="matrix(1 0 0 1 238.946 600)">calculate hash digest</text><text font-family="Calibri,Calibri_MSFontService,sans-serif" font-weight="400" font-size="64" transform="matrix(1 0 0 1 1016.58 662)">call crypto provider</text><text font-family="Calibri,Calibri_MSFontService,sans-serif" font-weight="400" font-size="64" transform="matrix(1 0 0 1 1756.71 623)">call SignPath with credentials, </text><text font-family="Calibri,Calibri_MSFontService,sans-serif" font-weight="400" font-size="64" transform="matrix(1 0 0 1 1861.25 700)">project, signing policy</text><text fill="#FFFFFF" font-family="Arial,Arial_MSFontService,sans-serif" font-weight="400" font-size="64" transform="matrix(1 0 0 1 2976.35 550)">•</text><text fill="#FFFFFF" font-family="Calibri,Calibri_MSFontService,sans-serif" font-weight="400" font-size="64" transform="matrix(1 0 0 1 3042.35 550)">verify permissions</text><text fill="#FFFFFF" font-family="Arial,Arial_MSFontService,sans-serif" font-weight="400" font-size="64" transform="matrix(1 0 0 1 2976.35 627)">•</text><text fill="#FFFFFF" font-family="Calibri,Calibri_MSFontService,sans-serif" font-weight="400" font-size="64" transform="matrix(1 0 0 1 3042.35 627)">select key/certificate</text><text fill="#FFFFFF" font-family="Arial,Arial_MSFontService,sans-serif" font-weight="400" font-size="64" transform="matrix(1 0 0 1 2976.35 704)">•</text><text fill="#FFFFFF" font-family="Calibri,Calibri_MSFontService,sans-serif" font-weight="400" font-size="64" transform="matrix(1 0 0 1 3042.35 704)">call HSM</text><text fill="#FFFFFF" font-family="Arial,Arial_MSFontService,sans-serif" font-weight="400" font-size="64" transform="matrix(1 0 0 1 2976.35 781)">•</text><text fill="#FFFFFF" font-family="Calibri,Calibri_MSFontService,sans-serif" font-weight="400" font-size="64" transform="matrix(1 0 0 1 3042.35 781)">audit signing</text><text font-family="Calibri,Calibri_MSFontService,sans-serif" font-weight="400" font-size="64" transform="matrix(1 0 0 1 3963.07 627)">sign hash </text><text font-family="Calibri,Calibri_MSFontService,sans-serif" font-weight="400" font-size="64" transform="matrix(1 0 0 1 4005.78 704)">digest</text><text font-family="Calibri,Calibri_MSFontService,sans-serif" font-weight="400" font-size="64" transform="matrix(1 0 0 1 229.631 708)">write signature to file</text><rect x="219.5" y="882.5" width="585" height="111" stroke="#000000" stroke-width="3.4375" stroke-linejoin="round" stroke-miterlimit="10" fill="#7F7F7F"/><text fill="#FFFFFF" font-family="Calibri,Calibri_MSFontService,sans-serif" font-weight="400" font-size="64" transform="matrix(1 0 0 1 397.94 958)">OpenSSL</text><rect x="995.5" y="882.5" width="556" height="111" stroke="#000000" stroke-width="3.4375" stroke-linejoin="round" stroke-miterlimit="10" fill="#7F7F7F"/><text fill="#FFFFFF" font-family="Calibri,Calibri_MSFontService,sans-serif" font-weight="400" font-size="64" transform="matrix(1 0 0 1 1067.63 958)">Cryptoki engine</text><rect x="1759.5" y="882.5" width="761" height="111" stroke="#000000" stroke-width="3.4375" stroke-linejoin="round" stroke-miterlimit="10" fill="#00B0F0"/><text fill="#FFFFFF" font-family="Calibri,Calibri_MSFontService,sans-serif" font-weight="400" font-size="64" transform="matrix(1 0 0 1 1819.44 958)">SignPath Cryptoki library</text><rect x="219.5" y="1058.5" width="585" height="111" stroke="#000000" stroke-width="3.4375" stroke-linejoin="round" stroke-miterlimit="10" fill="#7F7F7F"/><text fill="#FFFFFF" font-family="Calibri,Calibri_MSFontService,sans-serif" font-weight="400" font-size="64" transform="matrix(1 0 0 1 350.56 1134)">SignTool.exe</text><rect x="995.5" y="1177.5" width="556" height="111" stroke="#000000" stroke-width="3.4375" stroke-linejoin="round" stroke-miterlimit="10" fill="#7F7F7F"/><text fill="#FFFFFF" font-family="Calibri,Calibri_MSFontService,sans-serif" font-weight="400" font-size="64" transform="matrix(1 0 0 1 1214.58 1254)">CNG</text><rect x="1759.5" y="1177.5" width="761" height="111" stroke="#000000" stroke-width="3.4375" stroke-linejoin="round" stroke-miterlimit="10" fill="#00B0F0"/><text fill="#FFFFFF" font-family="Calibri,Calibri_MSFontService,sans-serif" font-weight="400" font-size="64" transform="matrix(1 0 0 1 1972.21 1254)">SignPath KSP</text><rect x="995.5" y="1029.5" width="556" height="111" stroke="#000000" stroke-width="3.4375" stroke-linejoin="round" stroke-miterlimit="10" fill="#7F7F7F"/><text fill="#FFFFFF" font-family="Calibri,Calibri_MSFontService,sans-serif" font-weight="400" font-size="64" transform="matrix(1 0 0 1 1212.29 1106)">CAPI</text><rect x="1759.5" y="1028.5" width="761" height="111" stroke="#000000" stroke-width="3.4375" stroke-linejoin="round" stroke-miterlimit="10" fill="#00B0F0"/><text fill="#FFFFFF" font-family="Calibri,Calibri_MSFontService,sans-serif" font-weight="400" font-size="64" transform="matrix(1 0 0 1 1971.35 1104)">SignPath CSP</text><text font-family="Calibri,Calibri_MSFontService,sans-serif" font-weight="400" font-size="64" transform="matrix(1 0 0 1 2732.25 792)">HTTPS</text><text font-family="Calibri,Calibri_MSFontService,sans-serif" font-weight="400" font-size="64" transform="matrix(1 0 0 1 2752.39 869)">REST</text><rect x="995.5" y="1323.5" width="555" height="111" stroke="#000000" stroke-width="3.4375" stroke-linejoin="round" stroke-miterlimit="10" fill="#7F7F7F"/><text fill="#FFFFFF" font-family="Calibri,Calibri_MSFontService,sans-serif" font-weight="400" font-size="64" transform="matrix(1 0 0 1 1088.6 1399)">CTK extension</text><rect x="1759.5" y="1324.5" width="761" height="111" stroke="#000000" stroke-width="3.4375" stroke-linejoin="round" stroke-miterlimit="10" fill="#00B0F0"/><text fill="#FFFFFF" font-family="Calibri,Calibri_MSFontService,sans-serif" font-weight="400" font-size="64" transform="matrix(1 0 0 1 1970.04 1400)">SignPath CTK</text><rect x="219.5" y="1236.5" width="585" height="111" stroke="#000000" stroke-width="3.4375" stroke-linejoin="round" stroke-miterlimit="10" fill="#7F7F7F"/><text fill="#FFFFFF" font-family="Calibri,Calibri_MSFontService,sans-serif" font-weight="400" font-size="64" transform="matrix(1 0 0 1 396.485 1312)">codesign</text></g></svg>