<svg
   class='devops'
   xmlns:dc="http://purl.org/dc/elements/1.1/"
   xmlns:rdf="http://www.w3.org/1999/02/22-rdf-syntax-ns#"
   xmlns:svg="http://www.w3.org/2000/svg"
   xmlns="http://www.w3.org/2000/svg"
   version="1.1"
   viewBox="0 0 180.5 83.4">
  <g transform="translate(-11.1,-95.8)">
    <path id="code-bg" class="devops-circle-bg" d="m 87.3,108.8 c 0,0 -10.8,-8.8 -17.3,-10.9 -7.0,-2.2 -14.9,-2.3 -22.2,-1.1 -7.0,1.1 -19.4,7.9 -19.4,7.9 l -0.7,11.5 12.7,0.9 c 0,0 7.2,-3.6 11.1,-4.1 3.9,-0.5 8.1,-0.3 11.9,0.7 4.1,1.2 11.3,6.5 11.3,6.5 l 0.7,-12.3 z" />
    <text x="46" y="107" id="code">code</text>
    <path id="build-bg" d="m 25.4,106.6 c 0,0 -8.7,5.4 -12.5,17.5 -2.1,6.7 -2.0,14.1 -1.1,21.0 1.0,8.7 8.5,17.6 8.5,17.6 l 12.8,0.7 0.8,-11.4 c 0,0 -4.0,-5.4 -4.5,-11.5 -0.3,-4.1 -0.0,-8.5 1.4,-12.4 1.3,-3.4 6.5,-9.0 6.5,-9.0 l -12.5,-0.8 z" />
    <text transform="rotate(-90)" x="-144" y="23" id="build">build</text>
    <path id="test-bg" d="m 36.0,154.5 c 0,0 6.8,5.6 11.3,6.6 3.5,0.7 7.2,1.5 12.3,0.7 5.6,-0.8 10.8,-4.0 10.8,-4.0 l 12.5,1.0 -0.4,11.8 c 0,0 -9.5,7.0 -19.1,8.2 -8.2,1.0 -16.7,-0.1 -24.6,-2.6 -8.0,-2.4 -16.3,-10.7 -16.3,-10.7 l 12.6,0.8 z" />
    <text x="47.2" y="172.6" id="test">test</text>
    <path id="plan-bg" d="m 126.0,151.8 -35.6,-40.0 -12.3,-0.9 -0.9,13.1 35.2,38.9 1.1,-11.8 z" />
    <text transform="rotate(50)" x="142.7" y="12.7" id="plan">plan</text>
    <path id="sign-bg" class="blue" d="m 73.1,155.8 21.2,-23.4 12.5,1.2 -0.9,12.3 -20.8,22.9 0.5,-12.0 z" />
    <path id="release-bg" d="m 96.8,129.5 21.2,-23.4 12.5,1.2 -0.9,12.3 -20.8,22.9 -1.9,-9.0 z" />
    <text transform="rotate(-47)" x="-52.0" y="170.5" id="sign" >sign</text>
    <text transform="rotate(-47)" x="-22.6" y="170.0" id="release" >release</text>
    <path id="deploy-bg" d="m 120.3,104.3 c 0,0 7.8,-5.4 17.4,-7.3 8.4,-1.6 13.3,-1.3 20.0,-0.5 11.7,1.3 20.2,10.2 20.2,10.2 l -0.9,12.0 -13.0,-0.8 c 0,0 -4.8,-3.9 -9.3,-4.7 -3.9,-0.7 -8.1,-0.9 -12.0,-0.2 -5.9,0.9 -10.5,4.7 -10.5,4.7 l 0.8,-12.0 z" />
    <text x="137.7" y="106.6" id="text3728-42" >deploy</text>
    <path id="operate-bg" d="m 165.8,119.9 13.1,0.7 0.9,-11.5 c 0,0 8.0,9.1 9.9,17.4 1.6,7.0 2.5,14.7 0.7,21.8 -3.7,14.5 -13.5,20.5 -13.5,20.5 l -12.4,-1.0 1.1,-12.8 c 0,0 5.2,-2.3 7.4,-12.5 0.8,-4.0 0.2,-8.4 -0.8,-12.4 -1.2,-4.8 -6.6,-10.1 -6.6,-10.1 z" />
    <text transform="rotate(90)" x="124.4" y="-179.0" id="operate" >operate</text>
    <path id="monitor-bg" d="m 115.4,153.5 -0.9,11.6 c 0,0 8.2,8.3 14.6,10.6 11.7,4.2 17.8,3.7 26.6,2.4 10.4,-1.5 18.5,-7.5 18.5,-7.5 l -12.0,-0.9 1.0,-12.7 c 0,0 -7.4,4.6 -12.7,5.0 -5.0,0.3 -10.3,-0.7 -14.9,-2.6 -2.7,-1.1 -7.1,-5.0 -7.1,-5.0 z" />
    <text x="126.9" y="171.7" id="monitor">monitor</text>
  </g>
</svg>