<svg version="1.1" id="Layer_1" xmlns:serif="http://www.serif.com/"
	 xmlns="http://www.w3.org/2000/svg" xmlns:xlink="http://www.w3.org/1999/xlink" x="0px" y="0px" viewBox="99 48 413 90" xml:space="preserve">
<g>
	<g transform="matrix(3.75867,0,0,5.64148,-0.522633,0.8382)">
		<path fill="#fff" d="M127.7,17.4c0.4,0,0.9,0.1,1.1,0.2c0.3,0.1,0.4,0.4,0.4,0.7c0,0.3-0.2,0.5-0.4,0.7c-0.2,0.1-0.6,0.2-1.1,0.2
			H104v3h23.8c3.5,0,5.9-1.5,5.9-3.8s-2.4-3.8-6.1-3.8h-18.4c-0.4,0-0.8-0.1-1.1-0.2c-0.2-0.1-0.4-0.4-0.4-0.7s0.1-0.5,0.4-0.7
			c0.2-0.1,0.6-0.2,1.1-0.2h23.6v-3h-23.6c-3.7,0-6.1,1.5-6.1,3.8s2.4,3.8,6.1,3.8C109.2,17.4,127.7,17.4,127.7,17.4z M97.4,9.9
			l-11.8,8.3V9.9h-5L69,18.2V9.9h-5v12.3h5l11.5-8.1v8.1h5.3l18.1-12.3C103.9,9.9,97.4,9.9,97.4,9.9z M39,22.2
			c-3.2,0-5.5-0.6-7.2-1.7S29.2,18,29.2,16c0-1.8,0.9-3.2,2.7-4.4c1.8-1.2,4.3-1.8,7.1-1.8h22.2v3H39.6c-1.9,0-3.1,0.2-4,0.8
			c-1,0.6-1.4,1.4-1.4,2.4s0.6,1.8,1.6,2.4s2.2,0.8,4.3,0.8h21.1v3L39,22.2L39,22.2z"/>
	</g>
</g>
</svg>
