<svg _ngcontent-ftm-c95="" xmlns="http://www.w3.org/2000/svg" xml:space="preserve" viewBox="0 23 155 60"><path _ngcontent-ftm-c95="" d="M20.7 24.4H.1v5.3h16.3c1.9 0 3.4 1.5 3.4 3.4v30.2c0 1.9-1.6 3.4-3.4 3.4h-6.2V34.6H.1v37.6h20.6c4.8 0 8.7-3.9 8.8-8.7V33.1c-.1-4.8-4-8.7-8.8-8.7zm17.6 13.7c-4.1 1-5.3 2.4-5.8 2.8v31.2h9.6V46.3c-.1-3.2 4.7-4.3 7.8-2v-7.1c-5.6 0-9 .4-11.6.9zm105.2 0c-4.1 1-5.3 2.4-5.8 2.8v31.3h9.6V46.3c-.1-3.2 4.7-4.3 7.8-2v-7.1c-5.7 0-9.1.4-11.6.9zm-76-.9H51.9v7.1s5.5-1.9 9.3-1.9c4.7 0 4.9 2.3 4.9 3.4V50h-9.4c-4.3 0-7.8 3.5-7.8 7.7v6.7c0 4.3 3.5 7.8 7.8 7.8h19V45.3c0-4.8-3.9-8.1-8.2-8.1zm-1.4 29.5h-4.5c-2.1 0-3.6-1.5-3.6-3.6v-4c0-2 1.6-3.6 3.6-3.6h4.5v11.2zm-3.8-38.1c0-2.9-2.4-5.2-5.3-5.2s-5.3 2.3-5.3 5.2c0 2.9 2.4 5.2 5.3 5.2 3 .1 5.3-2.3 5.3-5.2zm12.7 0c0-2.9-2.4-5.2-5.3-5.2s-5.3 2.3-5.3 5.2c0 2.9 2.4 5.2 5.3 5.2 3 .1 5.3-2.3 5.3-5.2zm11.6 8.6c-4.8 0-8.2 3.9-8.1 8.2v5.8c0 4.8 3.9 8.1 8.2 8.1h9.7c4.8 0 8.1-3.9 8.1-8.2V37.2H86.6zm9.2 12.9c0 1.5-.4 4.1-4.1 4.1-3.7 0-4.1-2.6-4.1-4.1v-3.5c0-1.5.4-4.1 4.1-4.1 3.7 0 4.1 2.6 4.1 4.1v3.5zm1.4 10.5H86.3c-4.8 0-8.2 3.9-8.1 8.1v5.8c0 4.8 3.9 8.2 8.2 8.2h10.9c4.8 0 8.2-4 8.1-8.2v-5.8c-.1-4.8-4-8.1-8.2-8.1zm-1 12.9c0 1.5-.4 4.1-4.4 4.1-3.9 0-4.4-2.6-4.4-4.1V70c0-1.5.4-4.1 4.4-4.1 3.9 0 4.4 2.6 4.4 4.1v3.5zm38.5-14.4V45.3c0-4.8-4-8.1-8.2-8.1h-10.8c-4.3 0-8.2 3.3-8.2 8.1v18.8c0 4.8 3.9 8.1 8.6 8.1h18.3v-7.1s-6.2 1.8-12.1 1.7c-3.8 0-5.3-1.6-5.3-3.4v-4.3h17.7zm-17.8-5.4v-7.1c0-1.5.5-4.1 4.1-4.1 3.6 0 4.1 2.6 4.1 4.1v7.1h-8.2z" fill="#fff"></path></svg>