<?xml version="1.0" encoding="utf-8"?>
<!-- Generator: Adobe Illustrator 24.2.3, SVG Export Plug-In . SVG Version: 6.00 Build 0)  -->
<svg version="1.1" id="Ebene_1" xmlns="http://www.w3.org/2000/svg" xmlns:xlink="http://www.w3.org/1999/xlink" x="0px" y="0px"
	 viewBox="0 0 111.7 28.3" style="enable-background:new 0 0 111.7 28.3;" xml:space="preserve">
<style type="text/css">
	.st0{clip-path:url(#SVGID_2_);fill:#ffffff;}
</style>
<g>
	<g>
		<defs>
			<rect id="SVGID_1_" width="111.7" height="28.3"/>
		</defs>
		<clipPath id="SVGID_2_">
			<use xlink:href="#SVGID_1_"  style="overflow:visible;"/>
		</clipPath>
		<path class="st0" d="M90.7,8.9c0-1.5,1.2-2.7,2.7-2.7l12.3,0c1.9,0,3.1-1.3,3.1-2.8c0-1.6-1.2-2.8-3.1-2.8l-12.1,0
			c-4.9,0-8.6,3.8-8.6,8.4c0,4.6,3.7,8.4,8.6,8.4h9.7c1.5,0,2.7,1.2,2.7,2.7c0,1.5-1.2,2.7-2.7,2.7l-12.3,0c-1.9,0-3.1,1.3-3.1,2.8
			c0,1.6,1.2,2.8,3.1,2.8l12.1,0c4.9,0,8.6-3.8,8.6-8.4s-3.7-8.4-8.6-8.4h-9.7C91.9,11.6,90.7,10.4,90.7,8.9L90.7,8.9z M84.6,23.9
			L72.1,2.2c-0.3-0.6-0.8-1-1.2-1.3c0,0,0,0,0,0c0,0,0,0,0,0c-0.3-0.2-0.7-0.3-1-0.4c0,0,0,0,0,0c-0.1,0-0.1,0-0.2,0
			c0,0-0.1,0-0.1,0c0,0-0.1,0-0.1,0c-0.1,0-0.1,0-0.2,0c0,0,0,0,0,0c-0.4,0-0.7,0.2-1,0.4c0,0,0,0,0,0c0,0,0,0,0,0
			c-0.5,0.3-0.9,0.7-1.2,1.3L54.4,23.9c-1,1.7-0.5,3.3,0.9,4.1c1.4,0.8,3.1,0.4,4-1.3L69.5,9l10.2,17.7c1,1.7,2.7,2.1,4,1.3
			C85,27.2,85.6,25.5,84.6,23.9L84.6,23.9z M58.7,3.4c0-1.6-1.2-2.8-3.1-2.8H31.4c-1.9,0-3.1,1.3-3.1,2.8c0,1.6,1.2,2.8,3.1,2.8
			l9.2,0l0,19c0,1.9,1.3,3.1,2.8,3.1s2.8-1.2,2.8-3.1l0-19l9.2,0C57.5,6.2,58.7,5,58.7,3.4L58.7,3.4z M28.3,14.2
			C28.3,6.4,22,0,14.2,0C6.4,0,0,6.4,0,14.2c0,8.3,6.3,14.2,15.4,14.2h5.1c2.1,0,3.6-1.2,3.6-2.8c0-1.6-1.2-2.8-3.1-2.8l-5.6,0
			c-4.6,0-7.9-2-9.2-5.4h19.3c1.6,0,2.8-1.3,2.8-2.8V14.2L28.3,14.2z M22.3,11.6H6.1c1.1-3.4,4.3-5.9,8.1-5.9
			C18,5.7,21.2,8.2,22.3,11.6L22.3,11.6z"/>
	</g>
</g>
</svg>
