<svg width="177" height="32" viewBox="0 0 177 32" fill="none" xmlns="http://www.w3.org/2000/svg">
<g clip-path="url(#clip0)">
<path d="M32.3442 0H20.9297V11.3189H32.3442V0Z" fill="white"/>
<path d="M0.0703125 32H11.4848V20.6848L22.8993 32H32.3442V22.6379L9.51523 0H0.0703125V32Z" fill="white"/>
<path d="M32.3404 22.6379L20.9297 11.319H43.7549V22.6379H32.3404Z" fill="white"/>
<path d="M59.2705 13.0361V26.5807H55.1732V7.3822H59.4023L70.2594 20.4152L70.444 20.7401V7.3822H74.5413V26.5844H70.4703L59.5077 13.417L59.2705 13.0361Z" fill="white"/>
<path d="M89.3488 19.1612H78.3486V14.7957H89.3488V19.1612Z" fill="white"/>
<path d="M106.616 22.3765H96.6811L94.8132 26.5777H90.2188L99.3247 7.37549H103.84L113.082 26.5777H108.566L106.616 22.3765ZM101.565 11.4721L98.2552 18.8513H104.985L101.565 11.4721Z" fill="white"/>
<path d="M115.812 26.5778V7.37927H125.694C128.721 7.37927 130.973 7.75271 132.45 8.49586C133.926 9.24273 134.668 10.5386 134.668 12.3871V12.5215C134.668 13.724 134.374 14.6501 133.787 15.2962C133.199 15.9422 132.292 16.4016 131.064 16.6704C132.453 16.9206 133.478 17.3688 134.137 18.0186C134.796 18.6646 135.124 19.643 135.124 20.9538V21.0359C135.124 23.0637 134.34 24.4977 132.774 25.3305C131.207 26.167 128.917 26.5815 125.908 26.5815H115.812V26.5778ZM119.977 10.7962V15.0497H126.067C127.385 15.0497 128.443 14.9227 129.245 14.6725C130.047 14.4223 130.446 13.8547 130.446 12.9771V12.8688C130.446 11.9726 130.1 11.4012 129.403 11.1585C128.71 10.9157 127.55 10.7962 125.931 10.7962H119.977ZM119.977 18.4181V22.9704H125.374C126.104 22.9704 126.744 22.9517 127.298 22.9181C127.848 22.8807 128.322 22.8284 128.714 22.7575C129.478 22.6305 130.009 22.4027 130.303 22.0704C130.597 21.738 130.744 21.2936 130.744 20.7372V20.655C130.744 20.3488 130.702 20.0799 130.623 19.8484C130.544 19.6169 130.431 19.4189 130.288 19.2546C129.968 18.9297 129.437 18.7131 128.699 18.5936C127.961 18.4779 126.94 18.4181 125.641 18.4181H119.977Z" fill="white"/>
<path d="M138.641 26.5778V7.37927H142.968V22.5148H154.906V26.5815H138.641V26.5778Z" fill="white"/>
<path d="M176.07 26.5778H158.363V7.37927H175.509V11.0166H162.475V15.1095H173.506V18.7729H162.475V22.8135H176.07V26.5778Z" fill="white"/>
</g>
<defs>
<clipPath id="clip0">
<rect width="176" height="32" fill="white" transform="translate(0.0703125)"/>
</clipPath>
</defs>
</svg>
