<?xml version="1.0" encoding="UTF-8" standalone="no"?>
<!-- Generator: Adobe Illustrator 21.0.2, SVG Export Plug-In . SVG Version: 6.00 Build 0)  -->

<svg
   xmlns:dc="http://purl.org/dc/elements/1.1/"
   xmlns:cc="http://creativecommons.org/ns#"
   xmlns:rdf="http://www.w3.org/1999/02/22-rdf-syntax-ns#"
   xmlns:svg="http://www.w3.org/2000/svg"
   xmlns="http://www.w3.org/2000/svg"
   xmlns:sodipodi="http://sodipodi.sourceforge.net/DTD/sodipodi-0.dtd"
   xmlns:inkscape="http://www.inkscape.org/namespaces/inkscape"
   version="1.1"
   x="0px"
   y="0px"
   width="25.487118"
   height="23.733589"
   viewBox="0 0 25.487118 23.733589"
   enable-background="new 0 0 24 24"
   xml:space="preserve"
   id="svg26"
   sodipodi:docname="clickonce.svg"
   inkscape:version="0.92.4 (5da689c313, 2019-01-14)"><metadata
   id="metadata32"><rdf:RDF><cc:Work
       rdf:about=""><dc:format>image/svg+xml</dc:format><dc:type
         rdf:resource="http://purl.org/dc/dcmitype/StillImage" /><dc:title></dc:title></cc:Work></rdf:RDF></metadata><defs
   id="defs30" /><sodipodi:namedview
   pagecolor="#ffffff"
   bordercolor="#666666"
   borderopacity="1"
   objecttolerance="10"
   gridtolerance="10"
   guidetolerance="10"
   inkscape:pageopacity="0"
   inkscape:pageshadow="2"
   inkscape:window-width="1920"
   inkscape:window-height="1137"
   id="namedview28"
   showgrid="false"
   inkscape:zoom="19.666667"
   inkscape:cx="0.0093588876"
   inkscape:cy="10.478839"
   inkscape:window-x="1912"
   inkscape:window-y="-8"
   inkscape:window-maximized="1"
   inkscape:current-layer="svg26" />


<path
   style="color:#000000;font-style:normal;font-variant:normal;font-weight:normal;font-stretch:normal;font-size:medium;line-height:normal;font-family:sans-serif;font-variant-ligatures:normal;font-variant-position:normal;font-variant-caps:normal;font-variant-numeric:normal;font-variant-alternates:normal;font-feature-settings:normal;text-indent:0;text-align:start;text-decoration:none;text-decoration-line:none;text-decoration-style:solid;text-decoration-color:#000000;letter-spacing:normal;word-spacing:normal;text-transform:none;writing-mode:lr-tb;direction:ltr;text-orientation:mixed;dominant-baseline:auto;baseline-shift:baseline;text-anchor:start;white-space:normal;shape-padding:0;clip-rule:nonzero;display:inline;overflow:visible;visibility:visible;opacity:1;isolation:auto;mix-blend-mode:normal;color-interpolation:sRGB;color-interpolation-filters:linearRGB;solid-color:#000000;solid-opacity:1;vector-effect:none;fill:#000000;fill-opacity:1;fill-rule:nonzero;stroke:none;stroke-width:1px;stroke-linecap:square;stroke-linejoin:round;stroke-miterlimit:4;stroke-dasharray:none;stroke-dashoffset:0;stroke-opacity:1;paint-order:normal;color-rendering:auto;image-rendering:auto;shape-rendering:auto;text-rendering:auto;enable-background:accumulate"
   d="M 0.0078125,0 V 0.5 1 4 5 20.498047 20.5 L 0.00585938,20.998047 H 0.0078125 V 21 h 0.49804688 l 12.79492162,0.05078 0.5,0.002 0.0059,-1 -0.5,-0.002 L 1.0078525,20.00195 V 5 H 22.007812 v 6.703125 0.5 h 1 v -0.5 V 5 4 1 0.5 0 h -0.5 -0.5 -20.9999995 -0.5 z m 1,1 H 22.007812 V 4 H 1.0078125 Z m 1,1 v 1 h 0.5 1 0.5 V 2 h -0.5 -1 z m 3,0 v 1 h 0.5 1 0.5 V 2 h -0.5 -1 z m 3,0 v 1 h 0.5 1 0.4999995 V 2 h -0.4999995 -1 z m 3.3710935,7.0976562 a 0.50005,0.50005 0 0 0 -0.453125,0.6816407 l 4.88086,12.4570311 a 0.50005,0.50005 0 0 0 0.896484,0.07031 l 1.660156,-2.851563 4.167969,4.076172 a 0.50005,0.50005 0 0 0 0.707031,-0.0078 l 1.984375,-2.033204 a 0.50005,0.50005 0 0 0 -0.0039,-0.703125 L 21.097662,16.666025 24.05274,14.908212 A 0.50005,0.50005 0 0 0 23.98047,14.013681 L 11.574219,9.1328125 a 0.50005,0.50005 0 0 0 -0.195313,-0.035156 z m 0.894532,1.3847658 10.390624,4.08789 -2.630859,1.564454 a 0.50005,0.50005 0 0 0 -0.09766,0.783203 l 4.226562,4.226562 -1.289062,1.322266 -4.269531,-4.175781 a 0.50005,0.50005 0 0 0 -0.78125,0.105468 l -1.462891,2.513672 z"
   id="path4624"
   inkscape:connector-curvature="0" /></svg>