<?xml version="1.0" encoding="UTF-8" standalone="no"?>
<svg
   xmlns:serif="http://www.serif.com/"
   xmlns:dc="http://purl.org/dc/elements/1.1/"
   xmlns:cc="http://creativecommons.org/ns#"
   xmlns:rdf="http://www.w3.org/1999/02/22-rdf-syntax-ns#"
   xmlns:svg="http://www.w3.org/2000/svg"
   xmlns="http://www.w3.org/2000/svg"
   id="svg1461"
   version="1.1"
   viewBox="0 0 18 16"
   height="16mm"
   width="18mm">
  <defs
     id="defs1455" />
  <metadata
     id="metadata1458">
    <rdf:RDF>
      <cc:Work
         rdf:about="">
        <dc:format>image/svg+xml</dc:format>
        <dc:type
           rdf:resource="http://purl.org/dc/dcmitype/StillImage" />
        <dc:title></dc:title>
      </cc:Work>
    </rdf:RDF>
  </metadata>
  <g
     transform="translate(0,-281)"
     id="layer1">
    <path
       style="clip-rule:evenodd;fill:none;fill-rule:evenodd;stroke:#000000;stroke-width:0.52916664px;stroke-linejoin:round;stroke-miterlimit:1.41420996;stroke-opacity:1"
       d="m 9.3304674,281.8172 c 0.8448096,-0.18944 1.7166096,-0.26432 2.5807396,-0.20082 1.306516,0.0926 2.597947,0.51753 3.669774,1.27715 0.555096,0.39079 1.048544,0.86836 1.460765,1.40785 -0.416455,-0.24739 -0.867569,-0.43207 -1.328738,-0.57812 -0.973931,-0.30374 -2.019565,-0.39608 -3.026833,-0.2196 -0.182298,0.0336 -0.37809,0.0542 -0.531018,0.16854 -0.0587,0.0423 -0.10769,0.11297 -0.0905,0.18865 0.0243,0.10768 0.12171,0.17436 0.203199,0.23918 1.057011,0.75194 1.870869,1.84123 2.284413,3.07155 0.39714,1.1676 0.433387,2.4548 0.101865,3.64304 -0.131763,0.47599 -0.321205,0.9361 -0.562505,1.36711 -0.05583,0.10795 -0.129116,0.20611 -0.175418,0.31908 -0.207434,0.37148 -0.462757,0.71491 -0.74004,1.03717 -0.773112,0.8935 -1.744394,1.60629 -2.808024,2.1164 -0.8471896,0.42175 -1.7486296,0.73925 -2.6788996,0.91784 -1.17052,0.22463 -2.39104,0.22702 -3.5523,-0.054 -0.64929,-0.15637 -1.2782,-0.40031 -1.8587,-0.73104 -0.78025,-0.44344 -1.46976,-1.04537 -2.01374,-1.75922 0.53446,0.3138 1.11998,0.53552 1.71979,0.68739 0.86043,0.21511 1.76583,0.26247 2.64107,0.11007 0.1733,-0.0333 0.35772,-0.0526 0.50721,-0.15478 0.0672,-0.0431 0.12779,-0.11907 0.10874,-0.20347 -0.0246,-0.10768 -0.12197,-0.17383 -0.2032,-0.23839 -1.05648,-0.75274 -1.87034,-1.84176 -2.28415,-3.07155 -0.25479,-0.75009 -0.36168,-1.5494 -0.3167,-2.33997 0.0545,-1.01865 0.37121,-2.02036 0.90461,-2.88899 0.0828,-0.17859 0.19156,-0.34342 0.30083,-0.50641 0.80989,-1.1721 1.95501,-2.09259 3.23136,-2.71436 0.77893,-0.39396 1.6039,-0.69982 2.45639,-0.89032 m -0.9488,4.79187 c -0.7403,0.0738 -1.43457,0.49212 -1.85076,1.10781 -0.34422,0.49953 -0.49821,1.12421 -0.43048,1.72693 0.059,0.56092 0.31168,1.09829 0.70433,1.50284 0.3929,0.40957 0.92577,0.68236 1.48828,0.75988 0.58711,0.0844 1.20226,-0.0418 1.70629,-0.3556 0.4746696,-0.29157 0.8495796,-0.74189 1.0496096,-1.2618 0.21854,-0.56224 0.22913,-1.20174 0.0296,-1.77085 -0.18336,-0.53102 -0.54822,-0.99643 -1.01838,-1.30387 -0.4900096,-0.32464 -1.0945796,-0.46831 -1.6785196,-0.40534 z"
       serif:id="#006ca2ff"
       id="_-006ca2ff" />
  </g>
</svg>
