<?xml version="1.0" encoding="UTF-8" standalone="no"?>
<svg
   xmlns:dc="http://purl.org/dc/elements/1.1/"
   xmlns:cc="http://creativecommons.org/ns#"
   xmlns:rdf="http://www.w3.org/1999/02/22-rdf-syntax-ns#"
   xmlns:svg="http://www.w3.org/2000/svg"
   xmlns="http://www.w3.org/2000/svg"
   version="1.1"
   height="122.8"
   width="141.7"
   viewbox="0,0,620.2,124.6"
   id="Layer_1">
  <metadata
     id="metadata22">
    <rdf:RDF>
      <cc:Work
         rdf:about="">
        <dc:format>image/svg+xml</dc:format>
        <dc:type
           rdf:resource="http://purl.org/dc/dcmitype/StillImage" />
        <dc:title>SignPath GmbH</dc:title>
      </cc:Work>
    </rdf:RDF>
  </metadata>
  <defs
     id="defs20" />
  <title
     id="title2">SignPath GmbH</title>
  <g
     transform="translate(-27.1,-22.8)"
     id="g3684">
    <path
       style="fill:#ffffff"
       d="M 133.4,22.8 H 62.6 l -35.5,61.4 35.4,61.4 h 70.9 l 35.4,-61.4 z m 1.7,68.6 C 134.4,93 132.8,94 131,94 H 94.2 c -2.5,0 -4.5,-2 -4.5,-4.5 0,-2.5 2,-4.5 4.5,-4.5 H 121 L 110.5,73.1 a 4.43,4.43 0 0 1 0,-5.9 L 121,55.3 H 76.7 v 71.2 c 0,2.5 -2,4.5 -4.5,4.5 -2.5,0 -4.5,-2 -4.5,-4.5 V 41.7 c 0,-2.5 2,-4.5 4.5,-4.5 2.5,0 4.5,2 4.5,4.5 v 4.6 H 131 c 1.8,0 3.4,1 4.1,2.6 0.7,1.6 0.4,3.5 -0.7,4.8 L 120,70.1 134.4,86.5 c 1.1,1.4 1.4,3.3 0.7,4.9 z"
       id="path3682" />
  </g>
</svg>
