<?xml version="1.0" encoding="UTF-8" standalone="no"?>
<!-- Generator: Adobe Illustrator 19.1.0, SVG Export Plug-In . SVG Version: 6.00 Build 0)  -->

<svg
   xmlns:dc="http://purl.org/dc/elements/1.1/"
   xmlns:cc="http://creativecommons.org/ns#"
   xmlns:rdf="http://www.w3.org/1999/02/22-rdf-syntax-ns#"
   xmlns:svg="http://www.w3.org/2000/svg"
   xmlns="http://www.w3.org/2000/svg"
   xmlns:sodipodi="http://sodipodi.sourceforge.net/DTD/sodipodi-0.dtd"
   xmlns:inkscape="http://www.inkscape.org/namespaces/inkscape"
   version="1.1"
   id="Layer_1"
   x="0px"
   y="0px"
   viewBox="0 0 70 70"
   style="enable-background:new 0 0 70 70;"
   xml:space="preserve"
   sodipodi:docname="teamcity.svg"
   inkscape:version="0.92.4 (5da689c313, 2019-01-14)"><metadata
   id="metadata19"><rdf:RDF><cc:Work
       rdf:about=""><dc:format>image/svg+xml</dc:format><dc:type
         rdf:resource="http://purl.org/dc/dcmitype/StillImage" /></cc:Work></rdf:RDF></metadata><defs
   id="defs17">
	

		
		
		
		
	</defs><sodipodi:namedview
   pagecolor="#ffffff"
   bordercolor="#666666"
   borderopacity="1"
   objecttolerance="10"
   gridtolerance="10"
   guidetolerance="10"
   inkscape:pageopacity="0"
   inkscape:pageshadow="2"
   inkscape:window-width="1920"
   inkscape:window-height="1009"
   id="namedview15"
   showgrid="false"
   inkscape:zoom="3.3714286"
   inkscape:cx="-29.809322"
   inkscape:cy="35"
   inkscape:window-x="1912"
   inkscape:window-y="-8"
   inkscape:window-maximized="1"
   inkscape:current-layer="Layer_1" />
<path
   style="fill:#000000"
   d="M 13.4,13.4 H 56.6 V 56.6 H 13.4 Z"
   id="rect2" /><path
   style="fill:#ffffff"
   d="m 17.5,48.5 v 2.7 h 16.200001 v -2.7 z"
   id="rect4" /><path
   style="fill:#ffffff"
   d="M 32.3,22.7 V 19.1 H 17.5 v 3.6 h 5.4 V 37 h 3.9 V 22.7 Z"
   id="polygon6" /><path
   style="fill:#ffffff"
   d="m 32.5,28.1 c 0,5.1 3.9,9.2 9.2,9.1 3.4,0 5.5,-1.2 7.3,-3.2 l -2.5,-2.5 c -1.4,1.3 -2.7,2.1 -4.7,2.1 -3.1,0 -5.2,-2.5 -5.2,-5.6 v 0.1 c 0,-3.1 2.2,-5.6 5.2,-5.6 1.8,0 3.2,0.7 4.6,2 l 2.5,-2.9 c -1.7,-1.7 -3.7,-2.8 -7.1,-2.8 -5.5,0 -9.3,4.2 -9.3,9.3 v 0"
   id="path8"
   inkscape:connector-curvature="0" />
</svg>