<svg version="1.1" id="Layer_1" xmlns="http://www.w3.org/2000/svg" xmlns:xlink="http://www.w3.org/1999/xlink" x="0px" y="0px"
	 viewBox="0 0 758.54 90.33" style="enable-background:new 0 0 758.54 90.33;" xml:space="preserve">
<g>
	<g>
		<polygon fill="#fff" points="136.75,88.58 90.8,88.58 44.85,0 90.8,0 		"/>
		<path fill="#fff" d="M0,88.58h45.95L68.37,45.5H38.55c-9.92,0-19.01,5.52-23.59,14.32L0,88.58z"/>
	</g>
	<path fill="#fff" d="M242.28,81.28c0,0-8.86,9.05-23.47,9.05c-15.8,0-24.57-10.53-24.57-22.14c0-10.94,7.02-22.55,26.06-22.55
		h22.14v-2.7c0-8.24-4.86-14.18-16.61-14.18c-9.99,0-15.26,3.92-15.8,9.86h-11.48c0.81-12.56,11.75-19.85,27-19.85
		c17.01,0,28.09,8.24,28.09,23.5v46.31h-6.84c-2.43,0-4.42-1.95-4.47-4.38L242.28,81.28z M242.43,61.3v-6.08h-20.39
		c-11.07,0-16.34,4.73-16.34,12.69c0,7.7,5.81,12.42,15.8,12.42C232.98,80.34,242.43,71.97,242.43,61.3z"/>
	<path fill="#fff" d="M404.18,81.28c0,0-8.86,9.05-23.47,9.05c-15.8,0-24.57-10.53-24.57-22.14c0-10.94,7.02-22.55,26.06-22.55
		h22.14v-2.7c0-8.24-4.86-14.18-16.61-14.18c-9.99,0-15.26,3.92-15.8,9.86h-11.48c0.81-12.56,11.75-19.85,27-19.85
		c17.01,0,28.09,8.24,28.09,23.5v46.31h-6.84c-2.43,0-4.42-1.95-4.47-4.38L404.18,81.28z M404.34,61.3v-6.08h-20.39
		c-11.07,0-16.34,4.73-16.34,12.69c0,7.7,5.81,12.42,15.8,12.42C394.89,80.34,404.34,71.97,404.34,61.3z"/>
	<path fill="#fff" d="M725.06,81.28c0,0-8.86,9.05-23.47,9.05c-15.8,0-24.57-10.53-24.57-22.14c0-10.94,7.02-22.55,26.06-22.55
		h22.14v-2.7c0-8.24-4.86-14.18-16.61-14.18c-9.99,0-15.26,3.92-15.8,9.86h-11.48c0.81-12.56,11.75-19.85,27-19.85
		c17.01,0,28.09,8.24,28.09,23.5v46.31h-6.84c-2.43,0-4.42-1.95-4.47-4.38L725.06,81.28z M725.21,61.3v-6.08h-20.39
		c-11.07,0-16.34,4.73-16.34,12.69c0,7.7,5.81,12.42,15.8,12.42C715.76,80.34,725.21,71.97,725.21,61.3z"/>
	<path fill="#fff" d="M560.14,81.28c0,0-8.86,9.05-23.47,9.05c-15.8,0-24.57-10.53-24.57-22.14c0-10.94,7.02-22.55,26.06-22.55
		h22.14v-2.7c0-8.24-4.86-14.18-16.61-14.18c-9.99,0-15.26,3.92-15.8,9.86h-11.48c0.81-12.56,11.75-19.85,27-19.85
		c17.01,0,28.09,8.24,28.09,23.5v46.31h-6.84c-2.43,0-4.42-1.95-4.47-4.38L560.14,81.28z M560.3,61.3v-6.08h-20.39
		c-11.07,0-16.34,4.73-16.34,12.69c0,7.7,5.81,12.42,15.8,12.42C550.85,80.34,560.3,71.97,560.3,61.3z"/>
	<path fill="#fff" d="M278.08,0v88.58h-11.48V0H278.08z"/>
	<path fill="#fff" d="M349.65,68.05c-2.43,13.23-12.83,22.28-28.63,22.28c-21.2,0-33.08-15.53-33.08-35.78
		c0-20.39,11.88-35.78,33.08-35.78c16.07,0,25.93,8.91,28.22,21.47h-11.48c-2.16-6.89-7.43-11.48-16.74-11.48
		c-15.39,0-21.6,11.88-21.6,25.52c0,13.77,6.35,26.06,21.6,26.06c9.72,0,15.39-4.73,17.15-12.29H349.65z"/>
	<path fill="#fff" d="M457.86,20.52v9.99h-18.36v37.67c0,6.75,2.97,10.13,12.02,10.13h6.35v10.26h-7.16
		c-14.85,0-22.68-3.78-22.68-18.09V30.51v-9.99V0h11.48v20.52H457.86z"/>
	<path fill="#fff" d="M507.77,31.32h-5.27c-13.37,0-21.47,8.37-21.47,23.22v34.03h-11.48V20.52h11.48v8.24
		c3.38-4.19,12.15-8.24,22.01-8.24h4.73V31.32z"/>
	<path fill="#fff" d="M583.48,88.58V75.89l41.32-42.8v-2.57h-39.02v-9.99h53.88v12.56l-41.18,42.8v2.7h41.59v9.99H583.48z"/>
	<path fill="#fff" d="M758.54,20.53v63.58c0,2.47-2,4.47-4.47,4.47h-7.01V20.53H758.54z"/>
	<path fill="#fff" d="M758.54,11.53h-11.48V4.52c0-2.47,2-4.47,4.47-4.47h7.01V11.53z"/>
</g>
</svg>
