<svg width="100%" height="100%" viewBox="0 0 856 98" version="1.1" xmlns="http://www.w3.org/2000/svg" xmlns:xlink="http://www.w3.org/1999/xlink" xml:space="preserve" xmlns:serif="http://www.serif.com/" style="fill-rule:evenodd;clip-rule:evenodd;stroke-linejoin:round;stroke-miterlimit:1.41421;"><path d="M242.409,86.382c-6.502,1.794 -12.556,2.578 -22.645,2.578c-22.307,0 -30.376,-10.536 -30.376,-40.017c0,-29.481 8.069,-40.02 30.376,-40.02c9.754,0 14.686,0.672 21.073,2.241l-1.007,7.513c-6.726,-0.674 -11.096,-1.011 -20.066,-1.011c-15.132,0 -19.953,7.735 -19.953,31.277c0,23.539 4.821,31.274 19.953,31.274c9.527,0 15.359,-0.337 21.635,-1.234l1.01,7.399Z" style="fill:#fff;fill-rule:nonzero;"/><path d="M291.512,87.616l-9.866,0l0,-27.24l-25.671,-50.106l10.539,0l16.255,32.619c1.345,2.803 2.464,5.941 3.474,8.745l0.784,0c1.01,-2.804 2.244,-5.942 3.476,-8.633l16.253,-32.731l10.427,0l-25.671,50.219l0,27.127Z" style="fill:#fff;fill-rule:nonzero;"/><path d="M346.218,79.993c4.597,0.112 10.649,0.112 17.373,0.112c12.222,0 16.256,-2.466 16.256,-13.452c0,-11.994 -4.26,-15.132 -16.926,-15.357l-16.703,0l0,28.697Zm16.589,-36.207c11.21,-0.113 15.133,-2.691 15.133,-13.115c0,-10.537 -4.258,-12.891 -16.701,-12.891c-5.941,0 -10.986,0 -15.021,0l0,26.006l16.589,0Zm11.545,3.923c11.549,1.009 15.471,8.295 15.471,20.625c0,15.917 -6.95,20.177 -24.661,20.177c-13.227,0 -19.841,-0.111 -28.584,-0.895l0,-77.346c7.736,-0.785 13.675,-0.897 25.109,-0.897c18.944,0 25.783,4.26 25.783,20.176c0,11.098 -3.813,16.813 -13.118,17.712l0,0.448Z" style="fill:#fff;fill-rule:nonzero;"/><path d="M461.794,87.054c-10.312,0.672 -22.08,0.672 -33.179,0.672c-9.078,0 -14.794,-5.155 -14.909,-13.45l0,-50.667c0.115,-8.295 5.831,-13.452 14.909,-13.452c11.099,0 22.867,0 33.179,0.672l-0.445,7.736l-31.05,0c-4.597,0 -6.728,2.241 -6.728,7.398l0,16.815l33.405,0l0,7.959l-33.405,0l0,21.185c0,5.267 2.131,7.511 6.728,7.511l31.05,0l0.445,7.621Z" style="fill:#fff;fill-rule:nonzero;"/><path d="M511.909,46.812c11.436,-0.111 15.246,-3.249 15.246,-14.683c0,-11.323 -3.81,-14.349 -15.246,-14.349c-6.614,0 -12.328,0 -16.703,0.113l0,28.919l16.703,0Zm17.488,40.804l-6.837,-24.214c-2.018,-5.829 -5.159,-8.07 -10.314,-8.07c-7.175,0 -12.78,-0.113 -17.04,-0.113l0,32.397l-9.75,0l0,-77.346c8.408,-0.897 14.235,-1.01 26.678,-1.01c17.935,0 24.998,4.932 24.998,22.308c0,12.553 -4.037,18.607 -14.237,19.953l0,0.56c3.811,1.009 7.846,4.595 9.528,11.098l7.51,24.437l-10.536,0Z" style="fill:#fff;fill-rule:nonzero;"/><path d="M595.538,24.169l0,63.447l-17.15,0l0,-63.447l-23.092,0l0,-13.899l63.334,0l0,13.899l-23.092,0Z" style="fill:#fff;fill-rule:nonzero;"/><path d="M665.942,44.235c8.967,0 11.658,-2.468 11.658,-10.986c0,-8.632 -2.691,-10.874 -11.658,-10.874l-12.333,0.113l0,21.747l12.333,0Zm13.787,43.381l-5.829,-23.654c-1.457,-4.932 -3.698,-6.501 -8.295,-6.501l-11.996,-0.111l0,30.266l-16.813,0l0,-77.346c9.305,-0.897 15.583,-1.01 29.481,-1.01c20.178,0 28.586,5.157 28.586,22.869c0,10.872 -3.811,17.823 -14.799,19.167l0,0.56c3.925,0.897 9.192,3.698 10.988,11.659l6.724,24.101l-18.047,0Z" style="fill:#fff;fill-rule:nonzero;"/><path d="M748.897,30.446c-0.56,-2.354 -1.232,-4.932 -1.567,-7.286l-3.028,0c-0.56,2.354 -1.122,4.932 -1.682,7.286l-6.501,23.652l19.279,0l-6.501,-23.652Zm-16.366,36.881l-5.605,20.289l-17.487,0l22.307,-72.864c0.67,-2.801 3.141,-4.482 5.944,-4.482l16.141,0c2.913,0 5.267,1.681 5.939,4.482l22.308,72.864l-17.375,0l-5.605,-20.289l-26.567,0Z" style="fill:#fff;fill-rule:nonzero;"/><path d="M827.369,46.701c8.747,-0.112 11.435,-2.58 11.435,-12.22c0,-9.64 -2.688,-12.106 -11.435,-12.106l-11.992,0.113l0,24.213l11.992,0Zm-29.032,-36.431c9.305,-0.897 15.469,-1.01 29.371,-1.01c21.41,0 28.247,5.492 28.247,25.221c0,19.954 -6.837,25.333 -26.006,25.333c-5.044,0 -10.089,-0.335 -14.572,-0.895l0,28.697l-17.04,0l0,-77.346Z" style="fill:#fff;fill-rule:nonzero;"/><path d="M87.434,88.915c-0.057,0.014 -0.114,0.027 -0.171,0.04c-4.559,1.139 -9.066,1.715 -13.499,1.715c-9.318,0 -18.312,-2.527 -26.804,-7.574c-0.788,-0.467 -1.571,-0.947 -2.35,-1.459c-6.05,-3.385 -12.117,-7.709 -18.033,-12.853c-7.691,-6.687 -13.655,-13.434 -17.303,-17.915l-1.524,-1.874l1.476,-1.919c0.474,-0.63 12.138,-15.972 29.599,-27.422c17.602,-11.542 34.93,-15.062 50.935,-10.513l-4.922,8.539c-3.375,-0.825 -6.713,-1.24 -9.993,-1.24c-6.539,0 -13.314,1.65 -20.138,4.903c-5.395,2.573 -10.834,6.15 -16.165,10.633c-9.023,7.584 -14.604,15.107 -14.837,15.425c-0.326,0.442 -0.498,0.975 -0.498,1.54c0,0.566 0.172,1.099 0.498,1.541c0.233,0.317 5.791,7.82 14.837,15.424c0.301,0.254 0.603,0.493 0.905,0.74l2.87,-3.895c-0.258,-0.211 -0.517,-0.418 -0.774,-0.633c-5.306,-4.441 -9.421,-8.921 -11.938,-11.897l-1.052,-1.244l1.019,-1.275c0.261,-0.334 5.453,-6.903 13.672,-13.409l6.628,8.147c-2.701,2.752 -4.302,4.902 -4.396,5.029c-0.311,0.422 -0.475,0.931 -0.475,1.472c0,0.541 0.164,1.05 0.474,1.471c0.116,0.159 2.563,3.46 6.615,7.181l-5.966,8.097c-0.005,-0.003 -0.01,-0.007 -0.015,-0.01l-2.878,3.905c3.812,2.795 7.655,5.131 11.476,6.953c6.824,3.254 13.599,4.904 20.138,4.904c3.987,0 8.062,-0.617 12.182,-1.833l1.495,9.009c-0.363,0.1 -0.726,0.206 -1.088,0.297Zm61.534,-42.294l-0.002,-0.002c-0.336,-0.475 -8.392,-11.774 -21.503,-23.225c-1.31,-1.145 -2.627,-2.236 -3.946,-3.301l-4.262,5.786c1.292,1.034 2.579,2.108 3.858,3.22c7.691,6.687 13.655,13.434 17.303,17.916l1.505,1.849l0.019,0.023l-1.476,1.921c-0.037,0.049 -0.15,0.197 -0.321,0.416c-1.922,2.48 -11.644,14.571 -26.027,24.783c-0.149,0.105 -0.3,0.209 -0.449,0.314c-0.367,0.258 -0.734,0.515 -1.107,0.771c-0.226,0.154 -0.457,0.306 -0.685,0.46c-0.274,0.184 -0.545,0.371 -0.824,0.554c-0.026,0.017 -0.053,0.033 -0.08,0.051c-0.036,0.024 -0.071,0.049 -0.107,0.072c-0.354,0.232 -0.709,0.45 -1.063,0.675c-0.408,0.26 -0.815,0.526 -1.222,0.778c-0.381,0.234 -0.762,0.456 -1.142,0.683c-0.41,0.245 -0.82,0.496 -1.229,0.732c-0.373,0.215 -0.745,0.417 -1.118,0.625c-0.416,0.232 -0.833,0.471 -1.249,0.694c-0.356,0.191 -0.71,0.368 -1.066,0.552c-0.432,0.225 -0.866,0.456 -1.299,0.671c-0.329,0.163 -0.657,0.313 -0.986,0.471c-0.457,0.219 -0.915,0.444 -1.372,0.652c-0.3,0.138 -0.599,0.262 -0.899,0.394c-0.485,0.213 -0.97,0.432 -1.453,0.634c-0.264,0.108 -0.527,0.207 -0.79,0.313c-0.519,0.208 -1.038,0.42 -1.555,0.615c-0.225,0.084 -0.45,0.159 -0.674,0.24c-0.261,0.095 -0.522,0.184 -0.782,0.277l-1.519,-9.156c0.006,-0.001 0.012,-0.004 0.018,-0.006l-0.82,-4.945c-0.226,0.096 -0.45,0.194 -0.675,0.283c-0.182,0.074 -0.364,0.138 -0.545,0.208c-0.358,0.139 -0.716,0.28 -1.073,0.408c-0.155,0.057 -0.31,0.106 -0.465,0.16c-0.383,0.135 -0.766,0.269 -1.148,0.392c-0.122,0.04 -0.245,0.074 -0.367,0.112c-0.414,0.13 -0.827,0.258 -1.24,0.375c-0.084,0.024 -0.168,0.043 -0.253,0.066c-0.45,0.125 -0.899,0.246 -1.347,0.355c-0.04,0.01 -0.079,0.017 -0.118,0.027c-3.146,0.757 -6.255,1.138 -9.314,1.138c-6.428,0 -12.634,-1.678 -18.493,-5.029c-0.543,-0.311 -1.084,-0.63 -1.621,-0.97c-1.296,-0.697 -2.593,-1.463 -3.888,-2.279l5.668,-7.694c2.463,1.891 4.957,3.448 7.439,4.632c3.938,1.877 7.854,2.83 11.641,2.83c3.788,0 7.704,-0.953 11.64,-2.83c3.094,-1.476 6.207,-3.522 9.254,-6.083c5.156,-4.335 8.343,-8.636 8.475,-8.815c0.311,-0.421 0.475,-0.931 0.475,-1.473c0,-0.541 -0.164,-1.05 -0.474,-1.472c-0.133,-0.18 -3.313,-4.475 -8.476,-8.815c-3.048,-2.563 -6.162,-4.61 -9.254,-6.084c-3.937,-1.877 -7.853,-2.83 -11.64,-2.83c-2.864,0 -5.801,0.547 -8.766,1.624l0.365,0.871l0.368,0.874l0.333,0.793l0.366,0.871l0.368,0.873c0.025,-0.009 0.049,-0.015 0.074,-0.024l2.014,4.789c-0.34,0.136 -0.682,0.28 -1.023,0.443c-1.581,0.754 -3.175,1.802 -4.737,3.116c-2.645,2.222 -4.28,4.427 -4.348,4.519c-0.096,0.131 -0.146,0.287 -0.146,0.452c0,0.166 0.05,0.322 0.146,0.452c0.068,0.093 1.697,2.292 4.348,4.52c1.562,1.313 3.156,2.362 4.737,3.115c1.999,0.954 3.985,1.437 5.901,1.437c1.916,0 3.902,-0.483 5.901,-1.437c1.581,-0.753 3.175,-1.802 4.737,-3.115c2.645,-2.223 4.28,-4.427 4.348,-4.52c0.096,-0.13 0.146,-0.286 0.146,-0.452c0,-0.165 -0.05,-0.321 -0.146,-0.452c-0.068,-0.092 -1.697,-2.291 -4.348,-4.519c-1.562,-1.314 -3.155,-2.362 -4.737,-3.116c-1.999,-0.954 -3.985,-1.437 -5.901,-1.437c-0.072,0 -0.145,0.005 -0.217,0.007l-2.059,-4.895c4.778,-0.621 9.37,0.4 13.615,3.082c0.286,0.154 0.572,0.315 0.858,0.479c2.009,1.156 4.022,2.575 5.986,4.218c2.927,2.45 5.201,4.925 6.592,6.57l0.052,0.061l-0.171,0.215c-0.688,0.855 -4.403,5.312 -9.891,9.064l-1.767,1.137c-0.111,0.068 -0.222,0.137 -0.334,0.203c-0.102,0.061 -0.205,0.121 -0.309,0.179l-0.262,0.151c-0.108,0.062 -0.216,0.125 -0.327,0.187l-0.578,0.311c-0.107,0.057 -0.212,0.114 -0.318,0.17c-0.09,0.046 -0.18,0.089 -0.269,0.133l-0.273,0.137c-0.117,0.058 -0.233,0.117 -0.348,0.172l-0.471,0.218c-0.142,0.065 -0.283,0.13 -0.419,0.191l-0.474,0.2c-0.137,0.059 -0.275,0.117 -0.416,0.173l-0.391,0.151c-0.164,0.063 -0.326,0.126 -0.491,0.185l-0.308,0.106c-0.19,0.067 -0.381,0.134 -0.571,0.195l-0.2,0.06c-0.225,0.071 -0.451,0.142 -0.669,0.203l-0.145,0.039c-0.243,0.067 -0.487,0.133 -0.735,0.193l0.18,0.933l-0.24,-0.92c-5.294,1.276 -10.393,0.558 -15.04,-2.1c-0.295,-0.168 -0.589,-0.342 -0.929,-0.555c-2.292,-1.234 -4.594,-2.813 -6.843,-4.696c-2.931,-2.452 -5.204,-4.927 -6.594,-6.57l-0.051,-0.061l0.054,-0.069c0.186,-0.236 4.613,-5.836 11.242,-10.02c0.764,-0.482 1.525,-0.911 2.284,-1.316l-0.363,-0.864l-0.363,-0.864l-0.337,-0.803l-0.364,-0.865l-0.363,-0.864c-2.631,1.398 -5.267,3.199 -7.857,5.376c-0.191,0.161 -0.374,0.321 -0.56,0.481l-6.283,-7.721c0.935,-0.653 1.896,-1.297 2.885,-1.922c16.138,-10.185 31.942,-10.968 45.712,-2.263c0.521,0.281 1.043,0.572 1.566,0.872c3.653,2.102 7.304,4.674 10.876,7.663c5.306,4.441 9.42,8.922 11.938,11.898l1.038,1.228l0.013,0.016l-1.019,1.275c-0.025,0.032 -0.103,0.131 -0.221,0.276c-1.326,1.647 -8.032,9.677 -17.957,16.458c-0.102,0.07 -0.207,0.139 -0.31,0.208c-0.253,0.171 -0.506,0.343 -0.763,0.512c-0.156,0.102 -0.315,0.204 -0.473,0.306c-0.189,0.122 -0.377,0.246 -0.568,0.368c-0.018,0.011 -0.037,0.022 -0.055,0.034c-0.026,0.016 -0.05,0.032 -0.075,0.048c-0.243,0.154 -0.488,0.298 -0.733,0.448c-0.281,0.173 -0.563,0.35 -0.843,0.516c-0.263,0.156 -0.525,0.303 -0.788,0.454c-0.282,0.163 -0.565,0.33 -0.848,0.487c-0.257,0.142 -0.514,0.276 -0.771,0.414c-0.244,0.131 -0.489,0.263 -0.733,0.391l0.834,5.022c5.123,-2.537 10.277,-5.964 15.335,-10.217c9.023,-7.584 14.604,-15.107 14.837,-15.424c0.325,-0.442 0.498,-0.975 0.498,-1.541c0,-0.565 -0.173,-1.098 -0.498,-1.541l-0.001,0c-0.232,-0.317 -5.79,-7.82 -14.836,-15.424c-5.331,-4.483 -10.77,-8.06 -16.166,-10.633c-1.833,-0.873 -3.662,-1.628 -5.484,-2.269l4.837,-8.391c3.662,1.42 7.25,3.267 10.745,5.563c0.756,0.422 1.513,0.861 2.269,1.313c2.708,1.619 5.415,3.425 8.105,5.403l4.281,-5.81c-5.218,-3.897 -10.474,-7.179 -15.703,-9.769c-9.89,-4.899 -19.71,-7.383 -29.187,-7.383c-9.477,0 -19.297,2.484 -29.187,7.383c-7.821,3.875 -15.704,9.262 -23.431,16.011c-13.078,11.422 -21.167,22.75 -21.505,23.227c-0.472,0.666 -0.722,1.469 -0.722,2.32c0,0.852 0.25,1.655 0.722,2.322c0.338,0.476 8.393,11.775 21.505,23.226c7.727,6.749 15.61,12.136 23.431,16.01c9.89,4.899 19.71,7.384 29.187,7.384c9.477,0 19.297,-2.485 29.187,-7.384c7.821,-3.874 15.704,-9.261 23.431,-16.01c13.078,-11.422 21.167,-22.75 21.505,-23.227c0.472,-0.666 0.721,-1.469 0.721,-2.321c0,-0.851 -0.249,-1.653 -0.721,-2.32Z" style="fill:#fff;fill-rule:nonzero;"/></svg>