<svg version="1.1" id="Layer_1" xmlns="http://www.w3.org/2000/svg" xmlns:xlink="http://www.w3.org/1999/xlink" x="0px" y="0px"
	 viewBox="0 0 139 24" style="enable-background:new 0 0 139 24;" xml:space="preserve">
<path id="HitachiEnergy" fill="#fff" d="M30.5,18v-4.9h4.6V18h2.5V6.6h-2.5V11h-4.6V6.6H28V18H30.5z M41.9,8.4V6.6h-2.3v1.9h2.3V8.4
	z M41.9,18V9.7h-2.3V18H41.9z M46.9,18.1c0.4,0,0.9,0,1.3-0.1v-1.8c-0.2,0-0.5,0.1-0.7,0.1c-0.8,0-1-0.2-1-1v-4.1h1.7V9.7h-1.7V7.2
	h-2.3v2.5h-1.4v1.5h1.4v4.9C44.3,17.8,45.5,18.1,46.9,18.1z M51.8,18.2c1,0,2.1-0.3,2.8-1c0,0.3,0.1,0.5,0.2,0.8h2.3
	c-0.2-0.3-0.3-1.1-0.3-1.8v-4.3c0-2-2-2.4-3.6-2.4c-1.9,0-3.8,0.6-3.9,2.8h2.3c0.1-0.9,0.6-1.2,1.5-1.2c0.8,0,1.5,0.1,1.5,1.1
	c0,0.9-1.3,0.9-2.7,1.1c-1.4,0.2-2.8,0.6-2.8,2.5C49,17.4,50.2,18.2,51.8,18.2z M52.7,16.7c-0.7,0-1.4-0.2-1.4-1.1
	c0-0.8,0.6-1.1,1.3-1.2c0.7-0.1,1.5-0.1,1.9-0.5v0.8C54.5,15.3,54.4,16.7,52.7,16.7z M62.4,18.2c2.2,0,3.7-1.2,4-3.4h-2.2
	c-0.1,1-0.8,1.7-1.8,1.7c-1.4,0-1.9-1.4-1.9-2.6s0.5-2.7,1.9-2.7c0.9,0,1.5,0.5,1.7,1.4h2.2c-0.1-2.1-1.9-3.1-3.9-3.1
	c-2.7,0-4.2,1.9-4.2,4.5C58.3,16.5,60,18.2,62.4,18.2z M70,18v-4.3c0-1.7,0.5-2.4,1.8-2.4c1.1,0,1.5,0.7,1.5,2V18h2.3v-5.1
	c0-2-0.6-3.4-3-3.4c-0.8,0-1.8,0.4-2.4,1.4l0,0V6.6h-2.3V18H70z M79.5,8.4V6.6h-2.3v1.9h2.3V8.4z M79.5,18V9.7h-2.3V18H79.5z
	 M94.7,18v-2.1h-6.2v-2.8H94v-2h-5.5V8.7h6V6.6H86V18H94.7z M98.4,18v-4.3c0-1.7,0.5-2.4,1.8-2.4c1.1,0,1.5,0.7,1.5,2V18h2.3v-5.1
	c0-2-0.6-3.4-3-3.4c-1,0-2,0.4-2.5,1.4l0,0V9.7h-2.2V18H98.4z M109.5,18.2c1.9,0,3.2-0.8,3.9-2.8h-2c-0.1,0.5-0.9,1.1-1.8,1.1
	c-1.3,0-2-0.7-2-2.1h6c0.2-2.5-1.2-4.9-4-4.9c-2.5,0-4.2,1.9-4.2,4.4C105.2,16.4,106.8,18.2,109.5,18.2z M111.2,13h-3.7
	c0-0.6,0.4-1.8,1.9-1.8C110.5,11.2,111,11.8,111.2,13z M117.1,18v-3.7c0-1.5,0.6-2.7,2.2-2.7c0.3,0,0.6,0,0.8,0.1V9.6
	c-0.1,0-0.3-0.1-0.5-0.1c-1.1,0-2.2,0.7-2.6,1.8l0,0V9.7h-2.2V18H117.1z M124.7,21.1c3.8,0,4.3-2.3,4.3-3.7V9.7h-2.2v1.1l0,0
	c-0.5-1-1.4-1.3-2.5-1.3c-2.3,0-3.6,2-3.6,4.1c0,2.3,1.1,4.2,3.5,4.2c1,0,2-0.4,2.5-1.3l0,0v1.1c0,1.2-0.6,2-1.8,2
	c-0.8,0-1.5-0.3-1.7-1.1h-2.3C121.2,20.4,123.1,21.1,124.7,21.1z M124.9,16c-1.4,0-1.8-1.3-1.8-2.5s0.6-2.4,1.8-2.4
	c1.5,0,1.9,1.2,1.9,2.5S126.2,16,124.9,16z M132,20.9c1.6,0,2.4-0.5,2.8-1.9l3.5-9.3H136l-1.8,5.7l0,0l-1.9-5.7h-2.4l2.9,7.8
	c0.3,0.7,0,1.5-0.8,1.6c-0.4,0-0.9,0-1.3-0.1v1.9C131.1,20.9,131.6,20.9,132,20.9z"/>
<g id="Symbols">
	<g transform="translate(-48.000000, -60.000000)">
		<g transform="translate(48.000000, 59.000000)">
			<path fill="#fff" d="M18.5,17.2c0.6-1.1,1-2.5,1-3.9s-0.4-2.8-1-3.9h-2.3c0.9,1,1.4,2.4,1.4,3.9
				s-0.5,2.9-1.4,3.9H18.5z M7.8,17.2c-0.9-1-1.4-2.4-1.4-3.9s0.5-2.9,1.4-3.9H5.5c-0.6,1.1-1,2.5-1,3.9s0.4,2.7,1,3.9H7.8z
				 M12.3,15.3c1.1,0,2-0.9,2-1.9c0-1.1-0.9-1.9-2-1.9s-1.9,0.9-1.9,1.9C10.4,14.4,11.2,15.3,12.3,15.3z M12.3,21.1
				c2.4,0,3.8-0.7,5.2-1.9H7.1C8.5,20.4,10.3,21.1,12.3,21.1z M13,6.8h4.5c-1.2-1.1-2.8-1.7-4.5-1.9V6.8z M6.5,6.8H11V4.9
				C9.3,5.1,7.7,5.8,6.5,6.8z M12.3,17.2c2.2,0,3.9-1.7,3.9-3.9s-1.7-3.9-3.9-3.9c-2.1,0-3.9,1.7-3.9,3.9
				C8.4,15.5,10.2,17.2,12.3,17.2z M14.3,3.4c3.6,0.8,6.5,3.7,7.3,7.3c0.3,1.2,1.1,2.2,2.4,2.3c-1.3,0.1-2.1,1-2.4,2.3
				c-0.9,3.6-3.7,6.5-7.3,7.3C13,22.9,12.1,23.7,12,25l0,0c-0.1-1.3-1-2.1-2.3-2.4c-3.6-0.9-6.5-3.7-7.3-7.3C2.1,14,1.3,13.1,0,13
				c1.3-0.1,2.1-1,2.4-2.3c0.8-3.6,3.7-6.5,7.3-7.3C11,3.1,11.9,2.3,12,1C12.1,2.3,13,3.1,14.3,3.4L14.3,3.4z"/>
		</g>
	</g>
</g>
</svg>
