<?xml version="1.0" encoding="utf-8"?>
<svg class="jamf-logo" xmlns="http://www.w3.org/2000/svg" viewBox="0 0 162 56" role="presentation" aria-hidden="true"><path fill="#fff" d="M33.6,7 C28.1,7 24.8,9.3 23.3,14.3 L19.5,26.2 C18.1,30.1 15.8,31.7 11.7,31.7 L2.2,31.7 C1,31.7 0,32.7 0,33.9 L0,40 C0,41.1 0.9,42 2.1,42 L40.7,42 C41.9,42 42.9,41 42.9,39.8 L42.9,9.1 C42.9,7.9 42,7 40.8,7 L33.6,7 L33.6,7 Z M2.3,0 C1.1,0 0,1.1 0,2.3 L0,18.5 C0,19.8 1,20.8 2.3,20.8 L10.5,20.8 C14.2,20.8 19.4,20 20.8,13.4 C20.8,13.4 22.2,6.7 23,2.8 C23.3,1.3 22.2,-7.10542736e-15 20.7,-7.10542736e-15 L2.3,-7.10542736e-15 L2.3,0 Z"></path> <path fill="#fff" d="M152.9,13.3 C152.9,7.8 156.6,5.2 161.8,5 L161.8,9.5 L160.9,9.5 C158.6,9.5 157.4,11.4 157.4,13.7 L157.4,17.3 L161.6,17.3 L161.6,21.3 L157.4,21.3 L157.4,43.5 L152.9,43.5 L152.9,21.2 L149,21.2 L149,17.2 L152.9,17.2 L152.9,13.3 L152.9,13.3 Z M137.3,27.7 C137.3,23.2 134.7,21.2 131.6,21.2 C127.9,21.2 125.1,23.6 125.1,27.9 L125.1,43.7 L120.6,43.7 L120.6,27.7 C120.6,23.2 118,21.2 114.9,21.2 C111.2,21.2 108.4,23.6 108.4,27.9 L108.4,43.7 L104,43.7 L104,17.6 L108.5,17.6 L108.5,20.7 L108.6,20.7 C109.8,18 113,17 115.7,17 C118.3,17 121.2,17.7 123.3,21.5 C124.9,18.2 128.3,17 131.7,17 C137.3,17 141.6,20.4 141.6,27.2 L141.6,43.7 L137.1,43.7 L137.1,27.7 L137.3,27.7 Z M83.1,29.9 C77.6,29.9 75.8,32.6 75.8,35.1 C75.8,37.6 77.6,40.3 83.1,40.3 C88.6,40.3 90.4,37.6 90.4,35.1 C90.4,32.6 88.5,29.9 83.1,29.9 L83.1,29.9 L83.1,29.9 Z M90.2,26.2 C90.2,21.9 85.9,20.9 82.5,20.9 C80.1,20.9 77.8,21.5 75.4,22.7 L73.4,19 C77.3,17.3 80.4,17 82.7,17 C88.9,17 94.7,19.7 94.7,25.9 L94.7,43.7 L90.5,43.7 L90.5,40.9 C88.2,43.3 85.7,44.3 82.3,44.3 C76,44.3 71,40.8 71,34.9 C71,30.1 75,25.9 82.2,25.9 C84.9,25.9 87.8,26.7 90.2,28.9 L90.2,26.2 L90.2,26.2 Z M62.5,6 C64.2,6 65.6,7.4 65.6,9.1 C65.6,10.9 64.2,12.3 62.5,12.3 C60.8,12.3 59.4,10.9 59.4,9.2 C59.4,7.4 60.8,6 62.5,6 L62.5,6 L62.5,6 Z M60.4,17.4 L64.9,17.4 L65,46.9 C65,53.7 60.6,56 55.7,56 L54,56 L54,51.8 L55.7,51.8 C60.1,51.8 60.5,49.4 60.5,47.1 L60.4,17.4 L60.4,17.4 Z"></path> </svg>