<svg xmlns="http://www.w3.org/2000/svg" xmlns:xlink="http://www.w3.org/1999/xlink" viewBox="0 0 110 38"><g clip-path="url(#mce_a)" fill="#fff"><path d="M56.936 25.178a6.677 6.677 0 1 0 0-13.355 6.677 6.677 0 0 0 0 13.355zM25.253.5c-3.057 0-5.716 1.344-7.609 3.464C15.754 1.844 13.191.5 10.134.5 4.447.5.001 5.124.001 10.81v22.936c0 1.447 1.254 2.62 2.702 2.62s2.701-1.167 2.701-2.618V10.813a5.017 5.017 0 1 1 10.034 0v22.935c0 1.448 1.033 2.62 2.481 2.62s2.481-1.17 2.481-2.62V10.813a5.072 5.072 0 1 1 10.144 0v22.935c0 1.448.978 2.62 2.426 2.62 1.448 0 2.426-1.172 2.426-2.62V10.813C35.397 5.124 30.937.5 25.253.5z" /><path d="M69.955 9.479a2.622 2.622 0 0 0 0-3.707A17.887 17.887 0 0 0 57.229.5c-9.924 0-18 8.075-18 18 0 9.924 8.076 18 18 18a17.886 17.886 0 0 0 12.68-5.226 2.621 2.621 0 1 0-3.693-3.72 12.759 12.759 0 1 1 .032-18.075 2.624 2.624 0 0 0 3.707 0zM89.731.5c-9.923 0-18 8.075-18 18 0 9.924 8.075 18 18 18a17.88 17.88 0 0 0 12.728-5.27 2.624 2.624 0 0 0 .004-3.645 2.623 2.623 0 0 0-3.642-.128 1.75 1.75 0 0 0-.064.064c-2.41 2.41-5.614 3.61-9.021 3.61-6.136 0-11.273-4.09-12.485-10.265h27.863c1.449 0 2.622-1.046 2.622-2.493C107.73 8.446 99.656.5 89.731.5zm0 5.376c6.137 0 11.273 4.403 12.486 10.137h-24.97c1.211-5.734 6.348-10.137 12.484-10.137z" /></g></svg>
		