<?xml version="1.0" encoding="UTF-8" standalone="no"?>
<svg
   xmlns:dc="http://purl.org/dc/elements/1.1/"
   xmlns:cc="http://creativecommons.org/ns#"
   xmlns:rdf="http://www.w3.org/1999/02/22-rdf-syntax-ns#"
   xmlns:svg="http://www.w3.org/2000/svg"
   xmlns="http://www.w3.org/2000/svg"
   id="svg6"
   preserveAspectRatio="xMidYMid"
   version="1.1"
   viewBox="0 0 256 256"
   height="256px"
   width="256px">
  <metadata
     id="metadata12">
    <rdf:RDF>
      <cc:Work
         rdf:about="">
        <dc:format>image/svg+xml</dc:format>
        <dc:type
           rdf:resource="http://purl.org/dc/dcmitype/StillImage" />
        <dc:title></dc:title>
      </cc:Work>
    </rdf:RDF>
  </metadata>
  <defs
     id="defs10" />
  <path
     d="M 127.58594,0 C 57.165226,0 0,57.165226 0,127.58594 0,198.83513 57.165226,256 127.58594,256 198.83513,256 256,198.83513 256,127.58594 256,57.165226 198.83513,0 127.58594,0 Z m 2.38086,65.138672 c 13.56634,-0.10356 27.03038,4.039252 38.21484,12.738281 24.85437,19.883495 29.8242,56.335967 11.59766,83.675777 l -56.33594,80.36329 c -8.28479,0 -24.854236,-2.48491 -32.310548,-5.79883 l 48.880858,-47.22461 c -18.22653,4.1424 -37.28269,0.82952 -52.195311,-11.59766 C 70.420301,164.03925 62.963782,141.669 65.449219,120.95703 l -43.908203,48.05274 c 0,0 -5.800074,-10.77081 -7.457032,-30.6543 L 91.132812,77.876953 C 102.73152,69.592163 116.40045,65.242232 129.9668,65.138672 Z m 0.10156,22.017578 c -12.45962,-0.120576 -25.11048,5.244122 -33.964844,15.57422 -14.084142,18.22654 -11.599228,43.91035 5.798824,57.16601 17.39806,14.08414 43.08188,10.76951 57.16602,-7.45703 14.91262,-17.39806 12.42736,-43.07992 -4.9707,-57.164059 -7.06797,-5.385113 -15.50429,-8.036642 -24.0293,-8.119141 z"
     style="fill:#00b3e0;fill-rule:evenodd"
     id="path2" />
</svg>
