<?xml version="1.0" encoding="UTF-8" standalone="no"?>
<svg
   xmlns:dc="http://purl.org/dc/elements/1.1/"
   xmlns:cc="http://creativecommons.org/ns#"
   xmlns:rdf="http://www.w3.org/1999/02/22-rdf-syntax-ns#"
   xmlns:svg="http://www.w3.org/2000/svg"
   xmlns="http://www.w3.org/2000/svg"
   height="97.878494"
   width="71.619392"
   xml:space="preserve"
   viewBox="0 0 71.619392 97.878494"
   y="0px"
   x="0px"
   id="Layer_1"
   version="1.1"><metadata
   id="metadata25"><rdf:RDF><cc:Work
       rdf:about=""><dc:format>image/svg+xml</dc:format><dc:type
         rdf:resource="http://purl.org/dc/dcmitype/StillImage" /><dc:title></dc:title></cc:Work></rdf:RDF></metadata><defs
   id="defs23" />
<g
   transform="translate(-14.286308,-0.18939834)"
   style="fill:#000000;stroke:#000000;stroke-width:1.29999995;stroke-miterlimit:4;stroke-dasharray:none;stroke-opacity:1;fill-opacity:1"
   id="g18">
	
	
	
	
	
	
	
	<path
   d="m 45.21875,1.0839844 -0.158203,1.6445312 c -0.04659,0.4881222 -0.01787,1.1727954 -0.0059,2.0507813 0.01205,0.8779859 0.01468,1.9224057 -0.05664,3 -0.142649,2.155189 -0.618764,4.4195721 -1.738281,5.7031251 l -0.03711,0.04297 -0.0293,0.04883 c -2.407073,3.981639 -6.132349,6.821244 -9.896484,9.740234 -3.764134,2.918991 -7.568951,5.921218 -9.957031,10.316406 l -0.01563,0.02734 -0.01172,0.0293 c -1.242888,2.931079 -0.637969,5.824423 0.677734,8.367188 1.315703,2.542763 3.331795,4.802979 5.041016,6.691406 l 0.01563,0.01758 0.01563,0.01563 c 0.759901,0.730517 2.226538,2.280944 3.511719,3.529297 0.642591,0.624176 1.234969,1.170887 1.71875,1.535156 0.241891,0.182135 0.432534,0.325539 0.71875,0.416016 0.143108,0.04524 0.353031,0.100238 0.625,-0.0293 0.271969,-0.129532 0.414964,-0.451117 0.43164,-0.642578 l 0.01563,-0.191407 -0.08984,-0.171875 c -1.457534,-2.726225 -3.620597,-5.310968 -5.169922,-7.992187 -1.546631,-2.676558 -2.478964,-5.374305 -1.671875,-8.445313 1.125456,-3.576607 3.646772,-6.107559 6.509765,-8.535156 2.861744,-2.426538 6.04823,-4.7224 8.3125,-7.882812 2.00055,-2.381869 3.613893,-5.434995 4.21875,-8.621094 0.606803,-3.196354 0.174728,-6.5563961 -1.970703,-9.3535158 z M 56.623047,20.988281 c -7.504234,2.29183 -16.108838,5.313179 -20.224609,12.871094 l -0.0078,0.01172 -0.0059,0.01367 c -0.526934,1.07704 -0.888334,2.245662 -1.017578,3.455078 0,0 0,0.002 0,0.002 -0.626805,5.016827 2.828205,8.927431 5.386718,12.369141 l 0.01172,0.01562 0.01367,0.01563 c 0.442459,0.523511 0.594849,1.137902 0.564453,1.861328 -0.03039,0.723425 -0.265395,1.533638 -0.585938,2.296875 -0.320542,0.763236 -0.722478,1.478553 -1.0625,2.035156 -0.170011,0.278302 -0.324763,0.5159 -0.447265,0.705078 -0.122502,0.189178 -0.198097,0.295712 -0.277344,0.453125 l -1.080078,2.142578 2.013672,-1.304687 c 1.883377,-1.220943 3.998513,-2.813324 5.488281,-4.800782 1.489767,-1.987457 2.343172,-4.443449 1.541016,-7.148437 l -0.0078,-0.02539 -0.0098,-0.02344 c -0.819942,-2.137319 -2.487149,-4.002675 -3.642578,-5.882813 -1.149877,-1.8711 -1.800404,-3.613345 -0.917969,-5.71289 3.066514,-5.638678 9.442489,-8.499395 14.824219,-12.191407 z m 5.947265,31.837891 c -0.259024,0.0021 -0.518046,0.01472 -0.77539,0.03906 -0.683572,0.06466 -1.358722,0.210616 -2.00586,0.441407 -0.67125,0.205263 -1.188318,0.431054 -1.564453,0.671875 -0.190872,0.122206 -0.348521,0.245897 -0.484375,0.410156 -0.135855,0.164259 -0.300956,0.42217 -0.214843,0.783203 0.08611,0.361033 0.413298,0.54869 0.632812,0.607422 0.219515,0.05873 0.419722,0.05709 0.648438,0.03516 0.414178,-0.03972 0.956188,-0.197399 1.589843,-0.429687 2.472577,-0.17933 5.258141,1.628619 5.667969,4.113281 0.246377,2.439337 -0.777127,4.439366 -2.412109,6.197265 -1.639707,1.762979 -3.883091,3.224263 -5.882813,4.423829 -0.515826,0.230962 -0.986987,0.480844 -1.359375,0.722656 -0.392675,0.254985 -0.671233,0.430453 -0.896484,0.792969 -0.05631,0.09063 -0.122239,0.203897 -0.134766,0.396484 -0.01253,0.192587 0.09669,0.474261 0.263672,0.611328 0.333961,0.274134 0.550772,0.197636 0.757813,0.173828 0.409786,-0.04712 0.917703,-0.210348 1.689453,-0.515625 2.64501,-0.839844 5.570568,-1.989611 8.029297,-3.716797 2.466916,-1.732939 4.478072,-4.080499 5.130859,-7.242187 l 0.0039,-0.01758 0.002,-0.01758 c 0.455268,-3.0629 -1.185699,-5.587904 -3.513671,-7.027344 -1.527733,-0.944633 -3.358706,-1.467527 -5.171876,-1.453125 z m -38.970703,1.125 c -0.356652,8.79e-4 -0.859097,0.0299 -1.570312,0.08789 l -0.02148,0.002 -0.01953,0.002 C 17.240339,54.739167 11.296362,55.533814 7.71875,59.259766 l -0.2128906,0.220703 0.037109,0.304687 c 0.05306,0.455748 0.2839066,0.84907 0.5722656,1.121094 0.288358,0.272024 0.6229031,0.446883 0.9550781,0.582031 0.664351,0.270298 1.3646095,0.403881 1.7187495,0.533203 l 0.04688,0.01563 0.04687,0.0098 c 9.690653,1.988868 19.675702,1.564703 29.394532,0.808594 l 0.02344,-0.002 0.02539,-0.0039 c 4.124972,-0.626744 8.710456,-0.661992 12.728516,-2.646484 l 0.02539,-0.01367 0.02539,-0.01367 c 0.76565,-0.464988 1.916633,-0.992381 2.53125,-1.371093 0.153654,-0.09468 0.261629,-0.10211 0.451172,-0.390626 0.04739,-0.07213 0.11173,-0.179884 0.11914,-0.361328 0.0074,-0.181445 -0.09452,-0.413435 -0.216797,-0.527343 -0.244554,-0.227817 -0.388793,-0.192148 -0.498046,-0.199219 -0.425097,-0.02751 -0.864213,0.07798 -1.742188,0.273437 -11.325817,1.601851 -22.789792,2.935099 -34.158203,2.021485 l -0.07031,-0.0039 -0.06836,0.0078 C 17.781507,59.84952 16.499589,59.138749 16.25,58.685547 c -0.124794,-0.226601 -0.13999,-0.305542 0.08984,-0.556641 0.229838,-0.251099 0.836058,-0.599562 1.929687,-0.80664 l 0.0957,-0.01758 0.08594,-0.04492 c 0.34326,-0.180609 1.167179,-0.464244 2.048828,-0.728516 0.88165,-0.264272 1.842064,-0.526894 2.585938,-0.75 0.371935,-0.111553 0.686517,-0.212052 0.933593,-0.308594 0.123538,-0.04827 0.226846,-0.09084 0.345703,-0.164062 0.05943,-0.03661 0.124401,-0.07303 0.214844,-0.181641 0.09044,-0.108611 0.228742,-0.406874 0.119141,-0.689453 -0.109601,-0.282579 -0.301273,-0.357594 -0.402344,-0.398438 -0.101071,-0.04084 -0.17013,-0.05214 -0.240234,-0.0625 -0.140207,-0.02073 -0.278707,-0.02583 -0.457032,-0.02539 z m -3.384765,10.894531 c -0.09122,0.0028 -0.168487,0.02234 -0.238282,0.03906 -0.139589,0.03344 -0.265504,0.08333 -0.414062,0.148437 -0.28345,0.124229 -0.656182,0.321982 -1.140625,0.595703 -1.32428,0.370637 -2.221212,0.970908 -2.65625,1.78125 -0.446713,0.832092 -0.32161,1.791945 0.111328,2.574219 0.851887,1.539268 2.803211,2.697381 4.925781,2.671875 10.470705,2.055231 21.417099,1.12578 31.591797,-1.822266 l 1.679688,-0.486328 -1.589844,-0.728515 c -1.307884,-0.599078 -2.54836,-1.2996 -3.509766,-2.267579 l -0.24414,-0.24414 -0.339844,0.06445 c -8.973515,1.732253 -18.269661,2.412159 -27.244141,0.806641 -0.351186,-0.07606 -0.536285,-0.181578 -0.61914,-0.25586 -0.08339,-0.07476 -0.09689,-0.112808 -0.109375,-0.205078 -0.02496,-0.184539 0.09761,-0.598966 0.269531,-0.978516 0.08596,-0.189775 0.174958,-0.362268 0.244141,-0.566406 0.03459,-0.102068 0.07547,-0.209574 0.06641,-0.404297 -0.0091,-0.194722 -0.197502,-0.551848 -0.457031,-0.658203 -0.129765,-0.05318 -0.234949,-0.06722 -0.326172,-0.06445 z m 4.859375,10.277344 -1.97461,0.03711 c -2.011713,0.03822 -3.814327,1.242993 -4.544921,2.783203 -0.365299,0.770106 -0.434032,1.69326 0.01562,2.482422 0.446664,0.78392 1.330099,1.356915 2.619141,1.689453 9.17705,3.4634 19.585328,2.625193 28.613281,-0.730468 0.341137,-0.119442 0.681396,-0.2818 0.837891,-0.703125 0.07825,-0.210663 0.06245,-0.454592 -0.002,-0.632813 -0.06435,-0.17822 -0.160341,-0.307397 -0.261719,-0.417969 -0.40551,-0.442285 -0.9755,-0.711958 -1.648437,-1.013671 -1.345873,-0.603428 -3.059267,-1.140149 -3.66211,-1.332032 l -0.154297,-0.04883 -0.160156,0.0293 c -7.237676,1.325014 -14.835642,1.91235 -21.890625,0.0039 -0.09578,-0.05011 -0.152804,-0.09956 -0.142578,-0.07031 0.01315,0.03761 -0.0086,0.02683 0.04492,-0.08008 0.106952,-0.213814 0.492154,-0.59782 0.746094,-0.792969 z m -11.882813,6.833984 -0.07226,0.0098 c -2.175516,0.317751 -4.8614975,0.677093 -7.2988285,1.537109 -2.437331,0.860017 -4.6759246,2.25376 -5.75976563,4.671875 l -0.15820312,0.355469 0.23632813,0.306641 c 1.32018902,1.716389 3.29903462,2.339285 5.27539062,2.648437 1.976356,0.309153 4.0162273,0.33768 5.6289065,0.736328 l 0.03711,0.0098 0.03711,0.0039 c 14.493932,1.835416 29.305005,1.796991 43.714843,-0.886719 l 0.01758,-0.0039 0.01758,-0.0039 c 3.917968,-0.957718 8.452134,-1.553466 11.800781,-4.505859 l 0.01758,-0.01563 0.01758,-0.01758 c 0.541064,-0.552481 0.622611,-1.324958 0.447266,-1.908203 -0.175345,-0.583244 -0.533046,-1.0435 -0.914063,-1.371093 -0.190509,-0.163798 -0.383192,-0.296736 -0.626953,-0.38086 -0.12188,-0.04206 -0.261308,-0.07653 -0.4375,-0.06055 -0.176192,0.01598 -0.400321,0.108675 -0.546875,0.275391 -0.293107,0.333433 -0.240437,0.684538 -0.169922,0.978516 0.0365,0.15218 0.145409,0.347911 0.21875,0.519531 -1.068936,1.288578 -2.581493,1.96805 -4.375,2.361328 -1.889175,0.414256 -3.99076,0.548056 -5.875,0.986328 -0.0019,2.32e-4 -0.0039,-2.32e-4 -0.0059,0 -13.193051,1.588702 -26.60919,2.029089 -39.78711,0.371094 l -0.03711,-0.0059 h -0.03516 C 13.284527,88.548852 10.357927,87.982326 8.78125,87.208984 8.387081,87.015648 8.0799804,86.809343 7.9121094,86.642578 c -0.167871,-0.166765 -0.174049,-0.240146 -0.171875,-0.269531 0.0022,-0.02939 0.03183,-0.157547 0.3183594,-0.382813 0.286528,-0.225267 0.7991059,-0.505224 1.5625,-0.792968 l 0.0625,-0.02344 0.056641,-0.03516 c 0.2958916,-0.186689 1.0886756,-0.44774 1.9433596,-0.646484 0.854685,-0.198746 1.789505,-0.367012 2.515625,-0.517579 0.36306,-0.07528 0.67017,-0.142938 0.921875,-0.222656 0.125853,-0.03986 0.23425,-0.07536 0.373047,-0.160156 0.0694,-0.0424 0.153728,-0.09396 0.248047,-0.230469 0.09432,-0.136506 0.163282,-0.427651 0.08203,-0.642578 -0.1625,-0.429853 -0.389858,-0.421407 -0.53125,-0.470703 -0.141392,-0.0493 -0.283011,-0.08016 -0.462891,-0.111328 -0.359762,-0.06234 -0.860365,-0.116859 -1.564453,-0.173828 z m 57.117188,6.06836 c -0.4046,0.04383 -0.526573,0.210421 -0.738282,0.40039 -0.187476,0.168226 -0.411055,0.415289 -0.664062,0.710938 -1.395622,1.005511 -3.121613,1.5586 -4.873047,2.148437 -14.958315,4.296036 -30.853619,4.521963 -46.324219,3.09375 h -0.0078 C 16.6257,94.222051 15.107291,93.98743 14.242188,93.945312 c -0.21847,-0.01064 -0.363309,-0.03012 -0.611329,0.03125 -0.062,0.01534 -0.136985,0.03411 -0.24414,0.103516 -0.107154,0.0694 -0.273404,0.237279 -0.308594,0.47461 -0.03519,0.23733 0.06344,0.420132 0.132813,0.513671 0.06937,0.09354 0.1263,0.137895 0.177734,0.175782 0.205735,0.151548 0.379353,0.212779 0.673828,0.324218 0.294475,0.11144 0.687073,0.242968 1.205078,0.404297 l 0.02539,0.0078 0.02539,0.0059 c 10.616931,2.373788 21.597834,2.072416 32.300782,1.470703 l 0.01563,-0.002 0.01758,-0.002 c 7.143602,-0.786494 15.111269,-1.029986 21.443359,-5.423828 0.945335,-0.571876 1.576749,-1.710002 1.894531,-2.552735 0.07977,-0.211556 0.143309,-0.391466 0.148438,-0.642578 0.0026,-0.125557 0.0048,-0.293778 -0.140625,-0.501953 -0.145398,-0.208174 -0.487153,-0.328554 -0.689453,-0.30664 z"
   style="color:#000000;font-style:normal;font-variant:normal;font-weight:normal;font-stretch:normal;font-size:medium;line-height:normal;font-family:sans-serif;font-variant-ligatures:normal;font-variant-position:normal;font-variant-caps:normal;font-variant-numeric:normal;font-variant-alternates:normal;font-feature-settings:normal;text-indent:0;text-align:start;text-decoration:none;text-decoration-line:none;text-decoration-style:solid;text-decoration-color:#000000;letter-spacing:normal;word-spacing:normal;text-transform:none;writing-mode:lr-tb;direction:ltr;text-orientation:mixed;dominant-baseline:auto;baseline-shift:baseline;text-anchor:start;white-space:normal;shape-padding:0;clip-rule:nonzero;display:inline;overflow:visible;visibility:visible;opacity:1;isolation:auto;mix-blend-mode:normal;color-interpolation:sRGB;color-interpolation-filters:linearRGB;solid-color:#000000;solid-opacity:1;vector-effect:none;fill:#000000;fill-opacity:1;fill-rule:nonzero;stroke:none;stroke-width:1.29999995;stroke-linecap:butt;stroke-linejoin:miter;stroke-miterlimit:4;stroke-dasharray:none;stroke-dashoffset:0;stroke-opacity:1;color-rendering:auto;image-rendering:auto;shape-rendering:auto;text-rendering:auto;enable-background:accumulate"
   transform="translate(14.286308,0.18939834)"
   id="path4575" />
</g>
</svg>