<?xml version="1.0" encoding="UTF-8" standalone="no"?>
<svg
   xmlns:dc="http://purl.org/dc/elements/1.1/"
   xmlns:cc="http://creativecommons.org/ns#"
   xmlns:rdf="http://www.w3.org/1999/02/22-rdf-syntax-ns#"
   xmlns:svg="http://www.w3.org/2000/svg"
   xmlns="http://www.w3.org/2000/svg"
   width="30"
   height="30"
   viewBox="0 0 30 30"
   version="1.1"
   id="svg3728">
  <defs
     id="defs3722" />
  <metadata
     id="metadata3725">
    <rdf:RDF>
      <cc:Work
         rdf:about="">
        <dc:format>image/svg+xml</dc:format>
        <dc:type
           rdf:resource="http://purl.org/dc/dcmitype/StillImage" />
        <dc:title></dc:title>
      </cc:Work>
    </rdf:RDF>
  </metadata>
  <g
     id="layer1"
     transform="translate(2.6020322,-343.68588)">
    <path
       id="path3730"
       style="stroke-width:0.26458332"
       d="m 3.7185812,345.64484 a 3.0706941,3.0706941 0 0 0 -3.07061341,3.07062 3.0706941,3.0706941 0 0 0 2.29753431,2.96932 v 14.06271 a 3.0706941,3.0706941 0 0 0 -2.29753431,2.96778 3.0706941,3.0706941 0 0 0 3.07061341,3.07061 3.0706941,3.0706941 0 0 0 3.0706136,-3.07061 3.0706941,3.0706941 0 0 0 -2.3435262,-2.98018 v -2.45515 c 0.183646,-0.31032 0.384097,-0.63174 0.6165001,-0.9648 0.3792789,-0.43087 0.9698201,-0.8383 1.7208251,-1.20302 1.5020081,-0.72943 3.6143062,-1.27812 5.7515872,-1.82263 2.13728,-0.54451 4.298379,-1.08548 6.002217,-1.91565 0.851919,-0.41508 1.599119,-0.90412 2.154391,-1.55081 0.555272,-0.64669 0.897572,-1.47635 0.880566,-2.39468 l -0.03256,-1.75752 a 3.0706941,3.0706941 0 0 0 2.249992,-2.95537 3.0706941,3.0706941 0 0 0 -3.070614,-3.07062 3.0706941,3.0706941 0 0 0 -3.070613,3.07062 3.0706941,3.0706941 0 0 0 2.391068,2.99051 l 0.03256,1.75183 c 0.0103,0.55642 -0.159161,0.96906 -0.519348,1.38855 -0.360187,0.41948 -0.933148,0.81991 -1.671733,1.17977 -1.47717,0.71973 -3.579388,1.26409 -5.716963,1.80868 -2.137574,0.54458 -4.3119288,1.08985 -6.0368409,1.92753 -0.8289989,0.40261 -1.1507476,0.46635 -1.6810345,1.04593 v -9.11366 a 3.0706941,3.0706941 0 0 0 2.3435262,-2.97914 3.0706941,3.0706941 0 0 0 -3.0706136,-3.07062 z m -0.020154,1.34204 a 1.7082009,1.7082009 0 0 1 1.7079061,1.70842 1.7082009,1.7082009 0 0 1 -1.7079061,1.70791 1.7082009,1.7082009 0 0 1 -1.708423,-1.70791 1.7082009,1.7082009 0 0 1 1.708423,-1.70842 z m 16.9999958,0 a 1.7082009,1.7082009 0 0 1 1.707906,1.70842 1.7082009,1.7082009 0 0 1 -1.707906,1.70791 A 1.7082009,1.7082009 0 0 1 18.99,348.6953 1.7082009,1.7082009 0 0 1 20.698423,346.98688 Z M 3.6984276,366.98669 a 1.7082009,1.7082009 0 0 1 1.7079061,1.70843 1.7082009,1.7082009 0 0 1 -1.7079061,1.7079 1.7082009,1.7082009 0 0 1 -1.708423,-1.7079 1.7082009,1.7082009 0 0 1 1.708423,-1.70843 z" />
  </g>
</svg>
