<?xml version="1.0" encoding="UTF-8" standalone="yes"?>
<svg xmlns="http://www.w3.org/2000/svg" viewBox="0 0 30 30" width="30" height="30" fill="#000000">
  <path d="M27.324,4.804l-4.75-1.625c-0.315-0.108-0.667-0.051-0.932,0.152l-10.708,8.21L5.517,8.27 c-0.278-0.169-0.62-0.192-0.918-0.061l-2,0.875C2.235,9.243,2,9.603,2,10v10c0,0.397,0.235,0.757,0.599,0.916l2,0.875 c0.297,0.131,0.639,0.107,0.918-0.061l5.416-3.271l10.708,8.21c0.177,0.136,0.392,0.206,0.608,0.206 c0.109,0,0.218-0.018,0.324-0.054l4.75-1.625C27.728,25.058,28,24.678,28,24.25V5.75C28,5.322,27.728,4.942,27.324,4.804z M6,16.766 v-3.532L8.923,15L6,16.766z M22,19.717L15.038,15L22,10.283V19.717z"/>
</svg>
