<svg width="1096" height="302" xmlns="http://www.w3.org/2000/svg" xmlns:xlink="http://www.w3.org/1999/xlink" overflow="hidden"><defs><clipPath id="clip0"><rect x="0" y="0" width="1096" height="302"/></clipPath></defs><g clip-path="url(#clip0)"><rect x="0" y="0" width="1096" height="301.667" fill="#FFFFFF"/><rect x="59.5001" y="82.4091" width="142" height="138.847" stroke="#000000" stroke-linejoin="round" stroke-miterlimit="10" fill="#FFC000"/><text font-family="Calibri,Calibri_MSFontService,sans-serif" font-weight="400" font-size="24" transform="matrix(1 0 0 0.998897 112.597 158)">gpg</text><rect x="897.5" y="82.4091" width="153" height="138.847" stroke="#000000" stroke-linejoin="round" stroke-miterlimit="10" fill="#00B0F0"/><text fill="#FFFFFF" font-family="Calibri,Calibri_MSFontService,sans-serif" font-weight="700" font-size="24" transform="matrix(1 0 0 0.998897 930.262 158)">SignPath</text><path d="M213 149.668 320.239 149.668 320.239 151.999 213 151.999ZM214.333 157.493 201 150.834 214.333 144.174ZM318.905 144.174 332.239 150.834 318.905 157.493Z"/><text font-family="Calibri,Calibri_MSFontService,sans-serif" font-weight="400" font-size="19" transform="matrix(1 0 0 0.998897 800.818 179)">HTTPS/</text><text font-family="Calibri,Calibri_MSFontService,sans-serif" font-weight="400" font-size="19" transform="matrix(1 0 0 0.998897 810.264 202)">REST</text><rect x="333.5" y="82.4091" width="153" height="138.847" stroke="#000000" stroke-linejoin="round" stroke-miterlimit="10" fill="#FFC000"/><text font-family="Calibri,Calibri_MSFontService,sans-serif" font-weight="400" font-size="24" transform="matrix(1 0 0 0.998897 375.282 144)">gnupg</text><text font-family="Calibri,Calibri_MSFontService,sans-serif" font-weight="400" font-size="24" transform="matrix(1 0 0 0.998897 435.948 144)">-</text><text font-family="Calibri,Calibri_MSFontService,sans-serif" font-weight="400" font-size="24" transform="matrix(1 0 0 0.998897 356.142 173)">pkcs11</text><text font-family="Calibri,Calibri_MSFontService,sans-serif" font-weight="400" font-size="24" transform="matrix(1 0 0 0.998897 422.915 173)">-</text><text font-family="Calibri,Calibri_MSFontService,sans-serif" font-weight="400" font-size="24" transform="matrix(1 0 0 0.998897 430.248 173)">scd</text><path d="M762 149.668 884.56 149.668 884.56 151.999 762 151.999ZM763.333 157.493 750 150.834 763.333 144.174ZM883.227 144.174 896.56 150.834 883.227 157.493Z"/><rect x="597.5" y="82.4091" width="153" height="138.847" stroke="#000000" stroke-linejoin="round" stroke-miterlimit="10" fill="#00B0F0"/><text fill="#FFFFFF" font-family="Calibri,Calibri_MSFontService,sans-serif" font-weight="700" font-size="24" transform="matrix(1 0 0 0.998897 615.024 144)">libSignPath</text><text fill="#FFFFFF" font-family="Calibri,Calibri_MSFontService,sans-serif" font-weight="700" font-size="24" transform="matrix(1 0 0 0.998897 726.004 144)">.</text><text fill="#FFFFFF" font-family="Calibri,Calibri_MSFontService,sans-serif" font-weight="700" font-size="24" transform="matrix(1 0 0 0.998897 617.544 173)">Cryptoki.so</text><path d="M498 149.668 585.142 149.668 585.142 151.999 498 151.999ZM499.333 157.493 486 150.834 499.333 144.174ZM583.808 144.174 597.142 150.834 583.808 157.493Z"/><text font-family="Calibri,Calibri_MSFontService,sans-serif" font-weight="400" font-size="19" transform="matrix(1 0 0 0.998897 248.885 173)">Inter</text><text font-family="Calibri,Calibri_MSFontService,sans-serif" font-weight="400" font-size="19" transform="matrix(1 0 0 0.998897 238.179 196)">process</text><text font-family="Calibri,Calibri_MSFontService,sans-serif" font-weight="400" font-size="19" transform="matrix(1 0 0 0.998897 243.439 218)">comm</text><text font-family="Calibri,Calibri_MSFontService,sans-serif" font-weight="400" font-size="19" transform="matrix(1 0 0 0.998897 513.631 184)">PKCS #11</text></g></svg>